<svg width="374" height="602" fill="none" xmlns="http://www.w3.org/2000/svg"><path fill="#3B3B3B" d="M0 0h375v602H0z"/><path d="M31.816 43.226v9.668c-.006 1.341-.43 2.438-1.27 3.291-.832.853-1.965 1.332-3.398 1.436l-.498.02c-1.556 0-2.796-.42-3.72-1.26-.925-.84-1.393-1.996-1.407-3.467v-9.688h1.856v9.63c0 1.028.283 1.828.85 2.401.566.567 1.373.85 2.421.85 1.062 0 1.872-.283 2.432-.85.566-.566.85-1.363.85-2.392v-9.639h1.884zm5.042 12.744h6.182v1.475H34.65v-1.328l5.83-7.744H34.74v-1.494h8.008v1.279l-5.889 7.812zm1.943-11.865l1.465-1.66h1.563v.098l-2.48 2.675h-1.104l-2.451-2.675v-.098h1.533l1.474 1.66zm8.91 13.34h-1.807V46.879h1.806v10.566zm-1.954-13.37c0-.292.088-.54.264-.741.182-.202.45-.303.8-.303.352 0 .62.1.801.303.183.201.274.449.274.742s-.091.537-.274.732c-.182.196-.449.293-.8.293-.352 0-.619-.097-.801-.293a1.054 1.054 0 01-.264-.732zm7.971.245v2.559h1.973v1.396h-1.973v6.553c0 .423.088.742.264.957.176.208.475.312.899.312.208 0 .494-.039.859-.117v1.465c-.475.13-.938.195-1.387.195-.807 0-1.416-.244-1.826-.732-.41-.488-.615-1.182-.615-2.08v-6.553h-1.924v-1.396h1.924v-2.56h1.806zm9.144 13.32c-1.432 0-2.598-.468-3.496-1.406-.899-.944-1.348-2.204-1.348-3.78v-.331c0-1.048.199-1.983.596-2.803.403-.827.963-1.471 1.68-1.934a4.225 4.225 0 012.343-.703c1.374 0 2.441.453 3.203 1.358s1.143 2.2 1.143 3.886v.752h-7.158c.026 1.042.328 1.885.908 2.53.586.638 1.328.957 2.226.957.638 0 1.179-.13 1.622-.391.442-.26.83-.605 1.162-1.035l1.103.86c-.885 1.36-2.213 2.04-3.984 2.04zm-.225-9.472c-.729 0-1.341.267-1.836.8-.495.528-.8 1.27-.918 2.227h5.293v-.137c-.052-.918-.3-1.627-.742-2.129-.443-.508-1.042-.761-1.797-.761zm11.35 7.998c.645 0 1.208-.196 1.69-.586.482-.39.749-.88.8-1.465h1.71c-.033.605-.241 1.181-.625 1.728a4.106 4.106 0 01-1.543 1.309 4.409 4.409 0 01-2.032.488c-1.438 0-2.584-.478-3.437-1.435-.847-.964-1.27-2.279-1.27-3.946v-.302c0-1.029.19-1.944.567-2.745.377-.8.918-1.422 1.62-1.865.71-.442 1.547-.664 2.51-.664 1.186 0 2.169.355 2.95 1.065.788.71 1.207 1.63 1.26 2.763h-1.71c-.051-.683-.312-1.243-.78-1.68-.463-.442-1.036-.663-1.72-.663-.917 0-1.63.332-2.138.996-.501.657-.752 1.611-.752 2.861v.342c0 1.217.25 2.155.752 2.812.501.658 1.217.987 2.148.987zm-.42-12.06l1.465-1.661h1.563v.098l-2.48 2.675H73.02l-2.451-2.675v-.098h1.533l1.475 1.66zm9.026 2.773l.06 1.328c.806-1.016 1.861-1.524 3.163-1.524 2.233 0 3.36 1.26 3.38 3.78v6.982h-1.808v-6.992c-.006-.762-.182-1.325-.527-1.69-.338-.364-.869-.547-1.592-.547-.586 0-1.1.157-1.543.47a3.183 3.183 0 00-1.035 1.23v7.529h-1.806V46.879h1.709zM96.981 57.64c-1.432 0-2.597-.468-3.496-1.406-.898-.944-1.348-2.204-1.348-3.78v-.331c0-1.048.199-1.983.596-2.803.404-.827.964-1.471 1.68-1.934a4.225 4.225 0 012.344-.703c1.373 0 2.44.453 3.203 1.358.761.905 1.142 2.2 1.142 3.886v.752h-7.158c.026 1.042.329 1.885.908 2.53.586.638 1.328.957 2.227.957.638 0 1.178-.13 1.62-.391.444-.26.83-.605 1.163-1.035l1.103.86c-.885 1.36-2.213 2.04-3.984 2.04zm-.224-9.472c-.73 0-1.342.267-1.836.8-.495.528-.801 1.27-.918 2.227h5.293v-.137c-.053-.918-.3-1.627-.743-2.129-.442-.508-1.041-.761-1.796-.761zm.878-5.723h2.188l-2.617 2.871H95.75l1.884-2.871zm11.383 9.62c0-1.036.201-1.967.605-2.794.41-.827.977-1.465 1.699-1.914.729-.45 1.56-.674 2.49-.674 1.439 0 2.601.498 3.487 1.494.892.996 1.338 2.321 1.338 3.975v.127c0 1.029-.199 1.953-.596 2.773a4.456 4.456 0 01-1.689 1.905c-.73.455-1.569.683-2.52.683-1.432 0-2.594-.498-3.486-1.494-.886-.996-1.328-2.314-1.328-3.955v-.127zm1.816.214c0 1.172.27 2.113.811 2.822.546.71 1.276 1.065 2.187 1.065.918 0 1.647-.358 2.188-1.075.54-.722.81-1.731.81-3.027 0-1.159-.277-2.096-.83-2.812-.547-.723-1.276-1.084-2.188-1.084-.891 0-1.611.354-2.158 1.064-.547.71-.82 1.725-.82 3.047zm10.296-.205c0-1.621.384-2.923 1.152-3.906.768-.99 1.774-1.485 3.017-1.485 1.237 0 2.217.423 2.94 1.27v-5.508h1.807v15h-1.661l-.087-1.133c-.723.886-1.729 1.328-3.018 1.328-1.224 0-2.223-.501-2.998-1.504-.768-1.002-1.152-2.31-1.152-3.925v-.137zm1.806.205c0 1.198.248 2.135.742 2.812.495.678 1.179 1.016 2.051 1.016 1.146 0 1.983-.514 2.51-1.543v-4.853c-.54-.996-1.371-1.495-2.49-1.495-.886 0-1.576.342-2.071 1.026-.494.683-.742 1.696-.742 3.037zm13.538.273l-1.133 1.182v3.71h-1.806v-15h1.806v9.073l.967-1.162 3.291-3.476h2.197l-4.111 4.414 4.59 6.152h-2.119l-3.682-4.893zm14.378 4.893c-.105-.208-.189-.58-.254-1.113-.84.872-1.843 1.308-3.008 1.308-1.042 0-1.898-.293-2.569-.879-.664-.592-.996-1.34-.996-2.246 0-1.1.417-1.953 1.25-2.558.84-.612 2.019-.918 3.536-.918h1.757v-.83c0-.632-.188-1.133-.566-1.504-.378-.378-.934-.567-1.67-.567-.644 0-1.185.163-1.621.489-.436.325-.654.719-.654 1.181h-1.817c0-.527.186-1.035.557-1.523.377-.495.885-.886 1.523-1.172a5.162 5.162 0 012.119-.43c1.218 0 2.172.306 2.862.918.69.606 1.048 1.442 1.074 2.51v4.863c0 .97.124 1.742.371 2.315v.156h-1.894zm-2.998-1.377c.566 0 1.103-.146 1.611-.44.508-.292.875-.673 1.103-1.142v-2.168h-1.416c-2.213 0-3.32.648-3.32 1.943 0 .567.189 1.01.566 1.328.378.32.863.479 1.456.479zm9.719-.098h6.182v1.475h-8.389v-1.328l5.83-7.744h-5.742v-1.494h8.008v1.279l-5.889 7.812zm12.346-1.172l2.461-7.92h1.934l-4.248 12.198c-.658 1.758-1.703 2.636-3.135 2.636l-.342-.029-.674-.127v-1.465l.489.04c.612 0 1.087-.124 1.425-.372.345-.247.629-.7.85-1.357l.4-1.074-3.769-10.45h1.973l2.636 7.92zM23.59 425.313l-.914.985v2.437h-1.758v-8.531h1.758v3.867l.773-1.06 2.174-2.807h2.162l-3.03 3.791 3.118 4.74h-2.092l-2.191-3.422zm12.265-.65c0 .84-.148 1.576-.445 2.209-.297.633-.722 1.121-1.277 1.465-.551.344-1.184.515-1.899.515-.707 0-1.338-.17-1.892-.509-.555-.34-.985-.825-1.29-1.453-.304-.633-.458-1.36-.462-2.18v-.422c0-.84.15-1.578.451-2.215.305-.641.732-1.131 1.283-1.471.555-.343 1.188-.515 1.899-.515.71 0 1.342.172 1.892.515.555.34.983.83 1.283 1.471.305.637.457 1.373.457 2.209v.381zm-1.78-.387c0-.894-.16-1.574-.481-2.039-.32-.465-.778-.697-1.371-.697-.59 0-1.045.23-1.366.691-.32.457-.482 1.129-.486 2.016v.416c0 .871.16 1.547.48 2.027.32.481.782.721 1.383.721.59 0 1.043-.23 1.36-.691.316-.465.476-1.141.48-2.028v-.416zm5.855-4.072l2.191 6.187 2.18-6.187h2.308v8.531h-1.763v-2.332l.176-4.025-2.303 6.357h-1.207l-2.297-6.351.176 4.019v2.332h-1.758v-8.531h2.297zm10.472 5.525v3.006h-1.758v-8.531h3.329c.64 0 1.203.117 1.687.352.488.234.863.568 1.125 1.001.262.43.393.92.393 1.471 0 .836-.287 1.496-.862 1.981-.57.48-1.36.72-2.373.72h-1.54zm0-1.423h1.57c.465 0 .819-.11 1.061-.329.246-.218.37-.531.37-.937 0-.418-.124-.756-.37-1.014s-.586-.39-1.02-.398h-1.61v2.678zm8.246 3.017h3.733v1.412h-5.49v-8.531h1.757v7.119zm10.38-2.285h-3.376v2.285h3.961v1.412h-5.718v-8.531h5.707v1.424h-3.95v2.033h3.375v1.377zm8.656-3.41H75.07v7.107h-1.757v-7.107h-2.579v-1.424h6.95v1.424zm8.445 7.107H84.37l-3.422-5.613v5.613h-1.758v-8.531h1.758l3.428 5.625v-5.625h1.752v8.531zm3.904 0h-1.758v-8.531h1.758v8.531zm-.545-10.834h1.846l-1.623 1.817h-1.377l1.154-1.817zm10.592 8.596c0-.332-.117-.586-.352-.762-.234-.179-.656-.367-1.265-.562-.61-.199-1.092-.395-1.447-.586-.97-.524-1.454-1.229-1.454-2.115 0-.461.13-.872.387-1.231.262-.363.635-.646 1.12-.85a4.236 4.236 0 011.64-.304c.61 0 1.152.111 1.629.334.476.219.846.529 1.107.931.266.403.399.86.399 1.372h-1.758c0-.391-.123-.694-.37-.909-.245-.218-.591-.328-1.036-.328-.43 0-.764.092-1.002.276a.85.85 0 00-.358.714c0 .278.139.51.416.698.282.187.694.363 1.237.527 1 .301 1.728.674 2.185 1.119.457.445.686 1 .686 1.664 0 .739-.28 1.319-.838 1.74-.559.418-1.31.627-2.256.627a4.392 4.392 0 01-1.793-.357c-.539-.242-.951-.572-1.236-.99-.282-.418-.422-.903-.422-1.453h1.763c0 .941.563 1.412 1.688 1.412.418 0 .744-.084.978-.252a.837.837 0 00.352-.715zm8.592-1.459h-3.375v2.285h3.961v1.412h-5.719v-8.531h5.707v1.424h-3.949v2.033h3.375v1.377zm3.98 2.285h4.301v1.412h-6.498v-1.031l4.219-6.076h-4.213v-1.424h6.398v1.008l-4.207 6.111zm12.852 1.412h-1.758l-3.422-5.613v5.613h-1.758v-8.531h1.758l3.428 5.625v-5.625h1.752v8.531zm6.957-1.758h-3.082l-.586 1.758h-1.869l3.176-8.531h1.629l3.193 8.531h-1.869l-.592-1.758zm-2.607-1.423h2.132l-1.072-3.194-1.06 3.194zm8.662-5.35l2.191 6.187 2.18-6.187h2.308v8.531h-1.763v-2.332l.175-4.025-2.302 6.357h-1.207l-2.297-6.351.176 4.019v2.332h-1.758v-8.531h2.297zm19.211 4.459c0 .84-.149 1.576-.446 2.209-.297.633-.722 1.121-1.277 1.465-.551.344-1.184.515-1.899.515-.707 0-1.337-.17-1.892-.509-.555-.34-.984-.825-1.289-1.453-.305-.633-.459-1.36-.463-2.18v-.422c0-.84.15-1.578.451-2.215.305-.641.733-1.131 1.283-1.471.555-.343 1.188-.515 1.899-.515.711 0 1.342.172 1.892.515.555.34.983.83 1.284 1.471.304.637.457 1.373.457 2.209v.381zm-1.782-.387c0-.894-.16-1.574-.48-2.039-.32-.465-.777-.697-1.371-.697-.59 0-1.045.23-1.365.691-.321.457-.483 1.129-.487 2.016v.416c0 .871.16 1.547.481 2.027.32.481.781.721 1.382.721.59 0 1.043-.23 1.36-.691.316-.465.476-1.141.48-2.028v-.416zm3.559 4.459v-8.531h2.625c.75 0 1.42.17 2.01.51a3.507 3.507 0 011.388 1.441c.332.621.498 1.328.498 2.121v.393c0 .793-.164 1.498-.492 2.115a3.485 3.485 0 01-1.377 1.436c-.594.339-1.263.511-2.01.515h-2.642zm1.758-7.107v5.695h.849c.688 0 1.213-.224 1.577-.674.363-.449.548-1.092.556-1.927v-.452c0-.867-.18-1.523-.539-1.968-.359-.45-.885-.674-1.576-.674h-.867zm9.218 3.685l-.914.985v2.437h-1.757v-8.531h1.757v3.867l.774-1.06 2.174-2.807h2.162l-3.03 3.791 3.118 4.74h-2.092l-2.192-3.422zm10.262 1.664h-3.082l-.586 1.758h-1.869l3.176-8.531h1.629l3.193 8.531h-1.869l-.592-1.758zm-2.607-1.423h2.133l-1.073-3.194-1.06 3.194zm8.228 1.769h4.301v1.412h-6.498v-1.031l4.219-6.076h-4.213v-1.424h6.398v1.008l-4.207 6.111zm12.371-7.119v5.619c0 .934-.293 1.672-.879 2.215-.582.543-1.378.814-2.39.814-.996 0-1.787-.263-2.373-.791-.586-.527-.885-1.252-.897-2.173v-5.684h1.758v5.631c0 .558.133.967.399 1.224.269.254.64.381 1.113.381.988 0 1.49-.519 1.506-1.558v-5.678h1.763zm-4.593-1.605c0-.336.127-.62.38-.85.254-.234.563-.352.926-.352.36 0 .666.116.92.346.258.227.387.512.387.856 0 .332-.125.611-.375.837-.25.227-.561.34-.932.34-.379 0-.691-.115-.937-.345a1.1 1.1 0 01-.369-.832zm.673 0c0 .171.057.32.17.445a.605.605 0 00.463.181c.196 0 .35-.06.463-.181a.643.643 0 00.17-.445.626.626 0 00-.176-.452.585.585 0 00-.457-.187.607.607 0 00-.463.187.638.638 0 00-.17.452zM20.156 429.907h179.258v.586H20.156v-.586zM27.926 99.18c0 .84-.149 1.576-.445 2.209-.297.632-.723 1.121-1.278 1.465-.55.343-1.183.515-1.898.515-.707 0-1.338-.17-1.893-.51-.555-.339-.984-.824-1.289-1.453-.305-.633-.459-1.359-.463-2.18v-.421c0-.84.15-1.578.451-2.215.305-.64.733-1.131 1.284-1.47.554-.345 1.187-.517 1.898-.517.71 0 1.342.172 1.893.516.554.34.982.83 1.283 1.47.304.638.457 1.374.457 2.21v.38zm-1.781-.387c0-.895-.16-1.574-.48-2.04-.321-.464-.778-.696-1.372-.696-.59 0-1.045.23-1.365.691-.32.457-.483 1.129-.487 2.016v.416c0 .871.16 1.547.48 2.027.321.481.782.721 1.384.721.59 0 1.043-.231 1.36-.692.316-.465.476-1.14.48-2.027v-.416zm5.316 1.453v3.006h-1.758v-8.531h3.328c.64 0 1.203.117 1.688.351.488.235.863.569 1.125 1.002.261.43.392.92.392 1.47 0 .837-.287 1.497-.861 1.981-.57.481-1.361.721-2.373.721h-1.541zm0-1.424h1.57c.465 0 .819-.11 1.06-.328.247-.219.37-.531.37-.937 0-.418-.123-.756-.37-1.014-.245-.258-.585-.39-1.019-.399h-1.611v2.678zm10.262 2.672H38.64l-.586 1.758h-1.87l3.176-8.531h1.63l3.193 8.531h-1.87l-.591-1.758zm-2.608-1.424h2.133l-1.072-3.193-1.06 3.193zM51.2 96.145h-2.613v7.107h-1.758v-7.108H44.25v-1.423h6.95v1.423zm4.666 3.984h-1.4v3.123h-1.758v-8.531h3.17c1.008 0 1.785.224 2.332.673.547.45.82 1.084.82 1.905 0 .582-.127 1.068-.38 1.459-.25.386-.631.695-1.143.926l1.846 3.486v.082h-1.887l-1.6-3.123zm-1.4-1.424h1.418c.441 0 .783-.111 1.025-.334.242-.227.364-.537.364-.931 0-.403-.116-.72-.346-.95-.227-.23-.576-.346-1.049-.346h-1.412v2.561zm.984-5.437l.856-.838h1.447v.064l-1.77 1.647H54.91l-1.77-1.659v-.052h1.448l.861.838zm10.555 6.287h-3.375v2.285h3.96v1.412h-5.718v-8.531h5.707v1.423h-3.95v2.034h3.376v1.377zm9.055 3.697H73.3l-3.422-5.613v5.613H68.12v-8.531h1.758l3.428 5.625v-5.625h1.752v8.531zm3.904 0h-1.758v-8.531h1.758v8.531zm-.545-10.834h1.846l-1.623 1.816h-1.377l1.154-1.816zm9.32 8.719l1.934-6.416h1.957l-2.97 8.531h-1.835l-2.959-8.531h1.951l1.922 6.416zm11.846-1.008h-1.4v3.123h-1.758v-8.531h3.17c1.008 0 1.785.224 2.332.673.547.45.82 1.084.82 1.905 0 .582-.127 1.068-.381 1.459-.25.386-.631.695-1.142.926l1.845 3.486v.082h-1.886l-1.6-3.123zm-1.4-1.424h1.418c.441 0 .783-.111 1.025-.334.242-.227.363-.537.363-.931 0-.403-.115-.72-.345-.95-.227-.23-.577-.346-1.05-.346h-1.411v2.561zm11.222 2.789h-3.082l-.586 1.758h-1.869l3.176-8.531h1.629l3.193 8.531h-1.869l-.592-1.758zm-2.607-1.424h2.133l-1.073-3.193-1.06 3.193zm1.424-7.634h1.845l-1.623 1.816h-1.377l1.155-1.816zm7.238 2.285l2.191 6.187 2.18-6.187h2.309v8.531h-1.764v-2.332l.176-4.026-2.303 6.358h-1.207l-2.297-6.352.176 4.02v2.332h-1.758v-8.531h2.297zm15.412 5.689c-.066.918-.406 1.641-1.019 2.168-.61.527-1.415.791-2.415.791-1.093 0-1.955-.367-2.584-1.101-.625-.739-.937-1.75-.937-3.036v-.521c0-.82.144-1.543.434-2.168.289-.625.701-1.104 1.236-1.436.539-.335 1.164-.504 1.875-.504.984 0 1.777.264 2.379.791.601.528.949 1.268 1.043 2.221h-1.758c-.043-.55-.197-.949-.463-1.195-.262-.25-.662-.375-1.201-.375-.586 0-1.025.21-1.318.633-.29.418-.438 1.068-.446 1.95v.645c0 .922.139 1.596.416 2.022.281.426.723.639 1.324.639.543 0 .948-.123 1.213-.37.27-.25.424-.634.463-1.154h1.758zm3.523 2.842h-1.757v-8.531h1.757v8.531zm12.321-2.842c-.067.918-.406 1.641-1.02 2.168-.609.527-1.414.791-2.414.791-1.094 0-1.955-.367-2.584-1.101-.625-.739-.937-1.75-.937-3.036v-.521c0-.82.144-1.543.433-2.168.289-.625.701-1.104 1.237-1.436.539-.335 1.164-.504 1.875-.504.984 0 1.777.264 2.379.791.601.528.949 1.268 1.043 2.221h-1.758c-.043-.55-.198-.949-.463-1.195-.262-.25-.662-.375-1.201-.375-.586 0-1.026.21-1.319.633-.289.418-.437 1.068-.445 1.95v.645c0 .922.139 1.596.416 2.022.281.426.723.639 1.324.639.543 0 .947-.123 1.213-.37.27-.25.424-.634.463-1.154h1.758zm6.787-.855h-3.375v2.285h3.961v1.412h-5.719v-8.531h5.707v1.423h-3.949v2.034h3.375v1.377zm3.875 2.285h3.732v1.412h-5.49v-8.531h1.758v7.119zm10.379-2.285h-3.375v2.285h3.961v1.412h-5.719v-8.531h5.707v1.423h-3.949v2.034h3.375v1.377zm-1.834-7.137h1.846l-1.624 1.816h-1.376l1.154-1.816zm14.137 7.992c-.067.918-.407 1.641-1.02 2.168-.609.527-1.414.791-2.414.791-1.094 0-1.955-.367-2.584-1.101-.625-.739-.938-1.75-.938-3.036v-.521c0-.82.145-1.543.434-2.168.289-.625.701-1.104 1.236-1.436.539-.335 1.164-.504 1.875-.504.985 0 1.778.264 2.379.791.602.528.95 1.268 1.043 2.221h-1.758c-.043-.55-.197-.949-.462-1.195-.262-.25-.663-.375-1.202-.375-.586 0-1.025.21-1.318.633-.289.418-.437 1.068-.445 1.95v.645c0 .922.138 1.596.416 2.022.281.426.722.639 1.324.639.543 0 .947-.123 1.213-.37.269-.25.424-.634.463-1.154h1.758zm-3.428-7.19l.855-.837h1.448v.064l-1.77 1.647h-1.072l-1.77-1.658v-.053h1.447l.862.838zm8.24 6.909h-1.4v3.123h-1.758v-8.531h3.17c1.008 0 1.785.224 2.332.673.547.45.82 1.084.82 1.905 0 .582-.127 1.068-.381 1.459-.25.386-.631.695-1.142.926l1.845 3.486v.082h-1.886l-1.6-3.123zm-1.4-1.424h1.418c.441 0 .783-.111 1.025-.334.242-.227.363-.537.363-.931 0-.403-.115-.72-.345-.95-.227-.23-.577-.346-1.049-.346h-1.412v2.561zM25.734 137.494h-3.082l-.586 1.758h-1.869l3.176-8.531h1.629l3.193 8.531h-1.869l-.592-1.758zm-2.607-1.424h2.133l-1.073-3.193-1.06 3.193zm9.037-.24l-.914.984v2.438h-1.758v-8.531h1.758v3.867l.773-1.061 2.174-2.806h2.162l-3.029 3.791 3.117 4.74h-2.092l-2.19-3.422zm11.867-3.685h-2.613v7.107H39.66v-7.107h-2.578v-1.424h6.95v1.424zm7.965-1.424v5.619c0 .933-.293 1.672-.879 2.215-.582.543-1.379.814-2.39.814-.996 0-1.787-.264-2.373-.791-.586-.527-.885-1.252-.897-2.174v-5.683h1.758v5.631c0 .558.133.966.398 1.224.27.254.64.381 1.114.381.988 0 1.49-.519 1.505-1.559v-5.677h1.764zm6.629 6.773h-3.082l-.586 1.758h-1.87l3.177-8.531h1.629l3.193 8.531h-1.87l-.591-1.758zm-2.607-1.424h2.132l-1.072-3.193-1.06 3.193zm1.423-7.634h1.846l-1.623 1.816h-1.377l1.154-1.816zm6.7 9.404h3.732v1.412h-5.49v-8.531h1.758v7.119zm12.183 1.412h-1.758l-3.422-5.613v5.613h-1.757v-8.531h1.757l3.428 5.625v-5.625h1.752v8.531zm3.904 0h-1.757v-8.531h1.757v8.531zm-.544-10.834h1.845l-1.623 1.816H78.53l1.155-1.816zm12.865 7.992c-.067.918-.406 1.641-1.02 2.168-.61.527-1.414.791-2.414.791-1.093 0-1.955-.367-2.584-1.101-.625-.739-.937-1.75-.937-3.036v-.521c0-.82.144-1.543.433-2.168.29-.625.701-1.104 1.237-1.436.539-.336 1.164-.503 1.875-.503.984 0 1.777.263 2.379.791.601.527.949 1.267 1.043 2.22h-1.758c-.043-.551-.197-.949-.463-1.195-.262-.25-.662-.375-1.201-.375-.586 0-1.026.211-1.319.633-.289.418-.437 1.068-.445 1.951v.644c0 .922.139 1.596.416 2.022.281.426.723.639 1.324.639.543 0 .948-.123 1.213-.37.27-.25.424-.634.463-1.154h1.758zm-3.428-7.189l.856-.838h1.447v.064l-1.77 1.647h-1.072l-1.77-1.658v-.053h1.448l.861.838zm6.951 10.031h-1.758v-8.531h1.758v8.531zm-.545-10.834h1.846l-1.623 1.816h-1.377l1.154-1.816zm7.104 8.596c0-.332-.117-.586-.352-.762-.234-.18-.656-.367-1.265-.563-.61-.199-1.092-.394-1.448-.585-.968-.524-1.453-1.229-1.453-2.116 0-.461.13-.871.387-1.23.262-.363.635-.647 1.12-.85a4.235 4.235 0 011.64-.304c.609 0 1.152.111 1.629.334.476.218.845.529 1.107.931.266.402.399.86.399 1.371h-1.758c0-.39-.123-.693-.369-.908-.247-.219-.592-.328-1.038-.328-.429 0-.763.092-1.001.275a.851.851 0 00-.358.715c0 .277.139.51.416.697.281.188.693.364 1.236.528 1 .301 1.729.674 2.186 1.119.457.445.686 1 .686 1.664 0 .738-.28 1.318-.838 1.74-.559.418-1.311.627-2.256.627a4.394 4.394 0 01-1.793-.357c-.54-.242-.951-.573-1.236-.991-.282-.417-.422-.902-.422-1.453h1.763c0 .942.563 1.412 1.688 1.412.418 0 .744-.084.978-.251a.837.837 0 00.352-.715zm5.217.826h3.732v1.412h-5.49v-8.531h1.758v7.119zm10.179-.346h-3.082l-.586 1.758h-1.869l3.176-8.531h1.629l3.193 8.531h-1.869l-.592-1.758zm-2.607-1.424h2.133l-1.073-3.193-1.06 3.193zm16.791 3.182h-1.758l-3.422-5.613v5.613h-1.758v-8.531h1.758l3.428 5.625v-5.625h1.752v8.531zm6.957-1.758h-3.082l-.586 1.758h-1.869l3.176-8.531h1.629l3.193 8.531h-1.869l-.592-1.758zm-2.607-1.424h2.132l-1.072-3.193-1.06 3.193zm9.037-.24l-.914.984v2.438h-1.758v-8.531h1.758v3.867l.773-1.061 2.174-2.806h2.162l-3.029 3.791 3.117 4.74h-2.092l-2.191-3.422zm10.261 1.664h-3.082l-.586 1.758h-1.869l3.176-8.531h1.629l3.193 8.531h-1.869l-.592-1.758zm-2.607-1.424h2.133l-1.073-3.193-1.06 3.193zm8.228 1.77h4.301v1.412h-6.498v-1.031l4.219-6.076h-4.213v-1.424h6.399v1.008l-4.208 6.111zm1.061-8.572l.855-.838h1.448v.064l-1.77 1.647h-1.072l-1.77-1.659v-.052h1.448l.861.838zm9.986 6.287h-3.375v2.285h3.961v1.412h-5.718v-8.531h5.707v1.424h-3.95v2.033h3.375v1.377zm9.055 3.697h-1.758l-3.422-5.613v5.613h-1.757v-8.531h1.757l3.428 5.625v-5.625h1.752v8.531zm4.813-4.688l1.775-3.843h1.922l-2.801 5.437v3.094h-1.787v-3.094l-2.801-5.437h1.928l1.764 3.843zm.357-6.128h1.846l-1.623 1.816h-1.377l1.154-1.816zm11.141 7.974c-.067.918-.407 1.641-1.02 2.168-.609.527-1.414.791-2.414.791-1.094 0-1.955-.367-2.584-1.101-.625-.739-.937-1.75-.937-3.036v-.521c0-.82.144-1.543.433-2.168.289-.625.701-1.104 1.236-1.436.539-.336 1.164-.503 1.875-.503.985 0 1.778.263 2.379.791.602.527.95 1.267 1.043 2.22h-1.758c-.042-.551-.197-.949-.462-1.195-.262-.25-.663-.375-1.202-.375-.586 0-1.025.211-1.318.633-.289.418-.437 1.068-.445 1.951v.644c0 .922.138 1.596.416 2.022.281.426.722.639 1.324.639.543 0 .947-.123 1.213-.37.269-.25.424-.634.463-1.154h1.758zm8.597 2.842h-1.758v-3.656h-3.427v3.656h-1.758v-8.531h1.758v3.457h3.427v-3.457h1.758v8.531zM22.676 172.246v3.006h-1.758v-8.531h3.328c.64 0 1.203.117 1.688.351.488.235.863.569 1.125 1.002.261.43.392.92.392 1.471 0 .836-.287 1.496-.861 1.98-.57.481-1.361.721-2.373.721h-1.541zm0-1.424h1.57c.465 0 .819-.109 1.06-.328.247-.219.37-.531.37-.937 0-.418-.123-.756-.37-1.014-.245-.258-.585-.391-1.019-.398h-1.611v2.677zm9.646 1.307h-1.4v3.123h-1.758v-8.531h3.17c1.008 0 1.785.224 2.332.674.547.449.82 1.084.82 1.904 0 .582-.127 1.068-.38 1.459-.25.387-.631.695-1.143.926l1.846 3.486v.082h-1.887l-1.6-3.123zm-1.4-1.424h1.418c.441 0 .783-.111 1.025-.334.242-.226.363-.537.363-.932 0-.402-.115-.718-.345-.949-.227-.23-.576-.345-1.049-.345h-1.412v2.56zm.984-5.437l.856-.838h1.447v.064l-1.77 1.647h-1.072l-1.77-1.659v-.052h1.448l.861.838zm10.555 6.287h-3.375v2.285h3.96v1.412h-5.718v-8.531h5.707v1.424h-3.95v2.033h3.376v1.377zm9.06 3.697h-1.757v-3.656h-3.428v3.656h-1.758v-8.531h1.758v3.457h3.428v-3.457h1.758v8.531zm3.8-1.412h3.732v1.412h-5.49v-8.531h1.757v7.119zm10.378-2.285h-3.375v2.285h3.961v1.412h-5.719v-8.531h5.707v1.424h-3.949v2.033H65.7v1.377zm2.117 3.697v-8.531h2.625c.75 0 1.42.17 2.01.509a3.507 3.507 0 011.389 1.442c.332.621.498 1.328.498 2.121v.393c0 .793-.164 1.498-.492 2.115a3.486 3.486 0 01-1.377 1.435c-.594.34-1.264.512-2.01.516h-2.643zm1.758-7.107v5.695h.85c.687 0 1.213-.225 1.576-.674.363-.449.549-1.092.557-1.928v-.451c0-.867-.18-1.523-.54-1.969-.359-.449-.884-.673-1.576-.673h-.867zm13.188 4.992l1.933-6.416h1.957l-2.97 8.531h-1.834l-2.96-8.531h1.952l1.922 6.416zm9.623-.123c0-.332-.117-.586-.352-.762-.234-.18-.656-.367-1.265-.563-.61-.199-1.092-.394-1.448-.585-.968-.524-1.453-1.229-1.453-2.116 0-.461.13-.871.387-1.23.262-.363.635-.647 1.119-.85a4.237 4.237 0 011.64-.304c.61 0 1.153.111 1.63.334.476.218.845.529 1.107.931.266.402.398.86.398 1.371h-1.757c0-.39-.123-.693-.37-.908-.246-.219-.591-.328-1.037-.328-.43 0-.763.092-1.002.275a.852.852 0 00-.357.715c0 .277.139.51.416.697.281.188.693.364 1.236.528 1 .301 1.729.674 2.186 1.119.457.445.685 1 .685 1.664 0 .738-.279 1.318-.837 1.74-.559.418-1.311.627-2.256.627a4.391 4.391 0 01-1.793-.357c-.54-.242-.951-.573-1.237-.991-.28-.417-.422-.902-.422-1.453h1.764c0 .942.563 1.412 1.688 1.412.418 0 .744-.084.978-.251a.838.838 0 00.352-.715zm-1.389-7.746l.856-.838h1.447v.064l-1.77 1.647h-1.072l-1.77-1.659v-.052h1.448l.861.838zm9.981 6.287h-3.375v2.285h3.96v1.412h-5.718v-8.531h5.707v1.424h-3.95v2.033h3.376v1.377zm8.814.855c-.066.918-.406 1.641-1.02 2.168-.609.527-1.414.791-2.414.791-1.093 0-1.955-.367-2.584-1.101-.625-.739-.937-1.75-.937-3.036v-.521c0-.82.144-1.543.434-2.168.289-.625.701-1.104 1.236-1.436.539-.336 1.164-.503 1.875-.503.984 0 1.777.263 2.379.791.601.527.949 1.267 1.043 2.22h-1.758c-.043-.551-.197-.949-.463-1.195-.262-.25-.662-.375-1.201-.375-.586 0-1.026.211-1.319.633-.289.418-.437 1.068-.445 1.951v.644c0 .922.139 1.596.416 2.022.281.426.723.639 1.324.639.543 0 .948-.123 1.213-.37.27-.25.424-.634.463-1.154h1.758zm8.598 2.842h-1.758v-3.656h-3.428v3.656h-1.758v-8.531h1.758v3.457h3.428v-3.457h1.758v8.531zm12.537-4.072c0 .84-.149 1.576-.446 2.209-.296.632-.722 1.121-1.277 1.465-.551.343-1.183.515-1.898.515-.707 0-1.338-.17-1.893-.51-.555-.339-.984-.824-1.289-1.453-.305-.633-.459-1.359-.463-2.179v-.422c0-.84.151-1.578.451-2.215.305-.641.733-1.131 1.284-1.471.554-.344 1.187-.515 1.898-.515.711 0 1.342.171 1.893.515.554.34.982.83 1.283 1.471.304.637.457 1.373.457 2.209v.381zm-1.781-.387c0-.895-.161-1.574-.481-2.039-.32-.465-.777-.697-1.371-.697-.59 0-1.045.23-1.365.691-.321.457-.483 1.129-.487 2.016v.416c0 .871.161 1.547.481 2.027.32.481.781.721 1.383.721.59 0 1.043-.231 1.359-.692.316-.465.477-1.14.481-2.027v-.416zm5.316 1.453v3.006h-1.758v-8.531h3.328c.641 0 1.203.117 1.688.351.488.235.863.569 1.125 1.002.261.43.392.92.392 1.471 0 .836-.287 1.496-.861 1.98-.57.481-1.361.721-2.373.721h-1.541zm0-1.424h1.57c.465 0 .819-.109 1.061-.328.246-.219.369-.531.369-.937 0-.418-.123-.756-.369-1.014s-.586-.391-1.02-.398h-1.611v2.677zm10.262 2.672h-3.082l-.586 1.758h-1.869l3.175-8.531h1.629l3.194 8.531h-1.87l-.591-1.758zm-2.608-1.424h2.133l-1.072-3.193-1.061 3.193zm12.084-3.925h-2.613v7.107h-1.758v-7.107h-2.578v-1.424h6.949v1.424zm4.666 3.984h-1.4v3.123h-1.758v-8.531h3.17c1.008 0 1.785.224 2.332.674.547.449.82 1.084.82 1.904 0 .582-.127 1.068-.381 1.459-.25.387-.63.695-1.142.926l1.846 3.486v.082h-1.887l-1.6-3.123zm-1.4-1.424h1.418c.441 0 .783-.111 1.025-.334.242-.226.363-.537.363-.932 0-.402-.115-.718-.345-.949-.227-.23-.576-.345-1.049-.345h-1.412v2.56zm.984-5.437l.856-.838h1.447v.064l-1.77 1.647h-1.072l-1.769-1.659v-.052h1.447l.861.838zm10.555 6.287h-3.375v2.285h3.961v1.412h-5.719v-8.531h5.707v1.424h-3.949v2.033h3.375v1.377zm9.055 3.697h-1.758l-3.422-5.613v5.613h-1.758v-8.531h1.758l3.428 5.625v-5.625h1.752v8.531zm3.904 0h-1.758v-8.531h1.758v8.531zm-.545-10.834h1.846l-1.623 1.816h-1.377l1.154-1.816zM27.615 208.41c-.066.918-.406 1.641-1.02 2.168-.609.527-1.413.791-2.413.791-1.094 0-1.955-.367-2.584-1.101-.625-.739-.938-1.75-.938-3.036v-.521c0-.82.145-1.543.434-2.168.289-.625.7-1.104 1.236-1.436.54-.336 1.164-.503 1.875-.503.985 0 1.777.263 2.379.791.602.527.95 1.267 1.043 2.22h-1.758c-.043-.551-.197-.949-.463-1.195-.261-.25-.662-.375-1.2-.375-.587 0-1.026.211-1.32.633-.288.418-.437 1.068-.445 1.951v.644c0 .922.14 1.596.416 2.022.282.426.723.639 1.325.639.543 0 .947-.123 1.213-.37.27-.25.423-.634.462-1.154h1.758zm-3.427-7.189l.855-.838h1.447v.064l-1.77 1.647h-1.072l-1.77-1.658v-.053h1.448l.861.838zm9.898 8.273h-3.082l-.586 1.758h-1.87l3.177-8.531h1.628l3.194 8.531h-1.87l-.591-1.758zm-2.607-1.424h2.132l-1.072-3.193-1.06 3.193zm10.789.944c0-.332-.118-.586-.352-.762-.234-.18-.656-.367-1.266-.563-.609-.199-1.091-.394-1.447-.585-.969-.524-1.453-1.229-1.453-2.116 0-.461.129-.871.387-1.23.261-.363.635-.647 1.119-.85a4.236 4.236 0 011.64-.304c.61 0 1.153.111 1.63.334a2.55 2.55 0 011.107.931c.265.402.398.86.398 1.371h-1.758c0-.39-.123-.693-.369-.908-.246-.219-.592-.328-1.037-.328-.43 0-.764.092-1.002.275a.852.852 0 00-.357.715c0 .277.139.51.416.697.281.188.693.364 1.236.528 1 .301 1.729.674 2.186 1.119.457.445.685 1 .685 1.664 0 .738-.279 1.318-.838 1.74-.558.418-1.31.627-2.255.627a4.391 4.391 0 01-1.794-.357c-.538-.242-.95-.573-1.236-.991-.281-.417-.422-.902-.422-1.453h1.764c0 .942.563 1.412 1.688 1.412.417 0 .744-.084.978-.251a.838.838 0 00.352-.715zm9.88-4.869h-2.613v7.107h-1.758v-7.107H45.2v-1.424h6.95v1.424zm8.352 3.035c0 .84-.148 1.576-.445 2.209-.297.632-.723 1.121-1.278 1.465-.55.343-1.183.515-1.898.515-.707 0-1.338-.17-1.893-.51-.554-.339-.984-.824-1.289-1.453-.304-.633-.459-1.359-.463-2.179v-.422c0-.84.15-1.578.451-2.215.305-.641.733-1.131 1.284-1.471.554-.344 1.187-.515 1.898-.515.711 0 1.342.171 1.893.515.555.34.982.83 1.283 1.471.305.637.457 1.373.457 2.209v.381zm-1.781-.387c0-.895-.16-1.574-.48-2.039-.321-.465-.778-.697-1.372-.697-.59 0-1.045.23-1.365.691-.32.457-.483 1.129-.486 2.016v.416c0 .871.16 1.547.48 2.027.32.481.781.721 1.383.721.59 0 1.043-.231 1.36-.692.316-.465.476-1.14.48-2.027v-.416zm11.47 2.221c0-.332-.117-.586-.351-.762-.234-.18-.656-.367-1.266-.563-.61-.199-1.091-.394-1.447-.585-.969-.524-1.453-1.229-1.453-2.116 0-.461.129-.871.387-1.23.261-.363.634-.647 1.119-.85a4.237 4.237 0 011.64-.304c.61 0 1.153.111 1.63.334.476.218.845.529 1.107.931.265.402.398.86.398 1.371h-1.758c0-.39-.123-.693-.369-.908-.246-.219-.592-.328-1.037-.328-.43 0-.764.092-1.002.275a.852.852 0 00-.357.715c0 .277.138.51.416.697.281.188.693.364 1.236.528 1 .301 1.729.674 2.186 1.119.457.445.685 1 .685 1.664 0 .738-.28 1.318-.838 1.74-.558.418-1.31.627-2.256.627a4.391 4.391 0 01-1.793-.357c-.539-.242-.95-.573-1.236-.991-.281-.417-.422-.902-.422-1.453h1.764c0 .942.562 1.412 1.687 1.412.418 0 .745-.084.979-.251a.838.838 0 00.352-.715zm8.592-1.459h-3.375v2.285h3.961v1.412h-5.719v-8.531h5.708v1.424h-3.95v2.033h3.375v1.377zm7.363.691v3.006h-1.757v-8.531h3.328c.64 0 1.203.117 1.687.351.489.235.864.569 1.125 1.002.262.43.393.92.393 1.471 0 .836-.287 1.496-.861 1.98-.57.481-1.362.721-2.373.721h-1.542zm0-1.424h1.57c.466 0 .82-.109 1.061-.328.246-.219.37-.531.37-.937 0-.418-.123-.756-.37-1.014-.246-.258-.586-.391-1.02-.398h-1.61v2.677zm12.91-2.677h-2.613v7.107h-1.757v-7.107h-2.578v-1.424h6.949v1.424zm5.622 5.349h-3.082l-.586 1.758h-1.87l3.176-8.531h1.629l3.194 8.531h-1.869l-.592-1.758zm-2.608-1.424h2.133l-1.072-3.193-1.061 3.193zm1.424-7.634h1.846l-1.623 1.816h-1.377l1.154-1.816zm10.66 3.709h-2.613v7.107h-1.758v-7.107h-2.578v-1.424h6.949v1.424zm6.641 3.41h-3.375v2.285h3.961v1.412h-5.719v-8.531h5.707v1.424h-3.949v2.033h3.375v1.377zm-98.117 36.691v3.006h-1.758v-8.531h3.328c.64 0 1.203.117 1.688.351.488.235.863.569 1.125 1.002.261.43.392.92.392 1.471 0 .836-.287 1.496-.861 1.98-.57.481-1.361.721-2.373.721h-1.541zm0-1.424h1.57c.465 0 .819-.109 1.06-.328.247-.219.37-.531.37-.937 0-.418-.123-.756-.37-1.014-.245-.258-.585-.391-1.019-.398h-1.611v2.677zm13.496.358c0 .84-.149 1.576-.445 2.209-.297.632-.723 1.121-1.278 1.465-.55.343-1.183.515-1.898.515-.707 0-1.338-.17-1.893-.51-.555-.339-.984-.824-1.289-1.453-.305-.633-.459-1.359-.463-2.179v-.422c0-.84.15-1.578.451-2.215.305-.641.733-1.131 1.284-1.471.554-.344 1.187-.515 1.898-.515.711 0 1.342.171 1.893.515.554.34.982.83 1.283 1.471.304.637.457 1.373.457 2.209v.381zm-1.781-.387c0-.895-.16-1.574-.48-2.039-.321-.465-.778-.697-1.372-.697-.59 0-1.045.23-1.365.691-.32.457-.483 1.129-.486 2.016v.416c0 .871.16 1.547.48 2.027.32.481.781.721 1.383.721.59 0 1.043-.231 1.36-.692.316-.465.476-1.14.48-2.027v-.416zm6.716 1.336h-1.4v3.123h-1.758v-8.531h3.17c1.008 0 1.785.224 2.332.674.547.449.82 1.084.82 1.904 0 .582-.127 1.068-.38 1.459-.25.387-.631.695-1.143.926l1.846 3.486v.082h-1.887l-1.6-3.123zm-1.4-1.424h1.418c.441 0 .783-.111 1.025-.334.243-.226.364-.537.364-.932 0-.402-.116-.718-.346-.949-.227-.23-.576-.345-1.049-.345h-1.412v2.56zm11.223 2.789h-3.082l-.586 1.758h-1.87l3.176-8.531h1.63l3.193 8.531h-1.87l-.591-1.758zm-2.608-1.424h2.133l-1.072-3.193-1.06 3.193zm6.365 3.182v-8.531h2.626c.75 0 1.42.17 2.01.509a3.507 3.507 0 011.388 1.442c.332.621.498 1.328.498 2.121v.393c0 .793-.164 1.498-.492 2.115a3.485 3.485 0 01-1.377 1.435c-.594.34-1.264.512-2.01.516h-2.642zm1.758-7.107v5.695h.85c.687 0 1.213-.225 1.576-.674.363-.449.549-1.092.557-1.928v-.451c0-.867-.18-1.523-.54-1.969-.359-.449-.884-.673-1.575-.673h-.868zm13.485 7.107h-1.758l-3.422-5.613v5.613h-1.758v-8.531h1.758l3.428 5.625v-5.625h1.752v8.531zm6.957-1.758h-3.082l-.586 1.758h-1.87l3.176-8.531h1.63l3.193 8.531h-1.87l-.591-1.758zm-2.608-1.424h2.133l-1.072-3.193-1.06 3.193zm11.612.176v3.006h-1.758v-8.531h3.328c.64 0 1.203.117 1.687.351.489.235.864.569 1.125 1.002.262.43.393.92.393 1.471 0 .836-.287 1.496-.861 1.98-.57.481-1.362.721-2.373.721H85.89zm0-1.424h1.57c.465 0 .818-.109 1.06-.328.247-.219.37-.531.37-.937 0-.418-.123-.756-.37-1.014-.246-.258-.585-.391-1.019-.398h-1.611v2.677zm9.646 1.307h-1.4v3.123h-1.758v-8.531h3.17c1.008 0 1.785.224 2.332.674.547.449.82 1.084.82 1.904 0 .582-.127 1.068-.38 1.459-.25.387-.632.695-1.143.926l1.845 3.486v.082h-1.886l-1.6-3.123zm-1.4-1.424h1.418c.441 0 .783-.111 1.025-.334.242-.226.363-.537.363-.932 0-.402-.115-.718-.345-.949-.227-.23-.576-.345-1.05-.345h-1.411v2.56zm13.414.475c0 .84-.149 1.576-.446 2.209-.296.632-.722 1.121-1.277 1.465-.551.343-1.183.515-1.898.515-.707 0-1.338-.17-1.893-.51-.555-.339-.984-.824-1.289-1.453-.305-.633-.459-1.359-.463-2.179v-.422c0-.84.151-1.578.451-2.215.305-.641.733-1.131 1.284-1.471.554-.344 1.187-.515 1.898-.515.711 0 1.342.171 1.893.515.554.34.982.83 1.283 1.471.304.637.457 1.373.457 2.209v.381zm-1.781-.387c0-.895-.161-1.574-.481-2.039-.32-.465-.777-.697-1.371-.697-.59 0-1.045.23-1.365.691-.321.457-.483 1.129-.487 2.016v.416c0 .871.161 1.547.481 2.027.32.481.781.721 1.383.721.59 0 1.043-.231 1.359-.692.316-.465.477-1.14.481-2.027v-.416zm9.718 1.037l-.914.984v2.438h-1.758v-8.531h1.758v3.867l.774-1.061 2.173-2.806h2.163l-3.03 3.791 3.117 4.74h-2.091l-2.192-3.422zm10.262 1.664h-3.082l-.586 1.758h-1.869l3.176-8.531h1.629l3.193 8.531h-1.869l-.592-1.758zm-2.607-1.424h2.132l-1.072-3.193-1.06 3.193zm8.228 1.77h4.301v1.412h-6.498v-1.031l4.219-6.076h-4.213v-1.424h6.398v1.008l-4.207 6.111zm1.061-8.572l.855-.838h1.447v.064l-1.769 1.647h-1.072l-1.77-1.659v-.052h1.447l.862.838zm4.853 9.984v-8.531h2.625c.75 0 1.42.17 2.01.509a3.506 3.506 0 011.389 1.442c.332.621.498 1.328.498 2.121v.393c0 .793-.164 1.498-.493 2.115a3.487 3.487 0 01-1.376 1.435c-.594.34-1.264.512-2.01.516h-2.643zm1.758-7.107v5.695h.85c.687 0 1.212-.225 1.576-.674.363-.449.549-1.092.556-1.928v-.451c0-.867-.179-1.523-.539-1.969-.359-.449-.884-.673-1.576-.673h-.867zm11.68 3.41h-3.375v2.285h3.961v1.412h-5.719v-8.531h5.707v1.424h-3.949v2.033h3.375v1.377zm-1.834-7.137h1.845l-1.623 1.816h-1.377l1.155-1.816zm10.894 10.834h-1.758v-3.656h-3.427v3.656h-1.758v-8.531h1.758v3.457h3.427v-3.457h1.758v8.531zm9.049-4.072c0 .84-.148 1.576-.445 2.209-.297.632-.723 1.121-1.278 1.465-.55.343-1.183.515-1.898.515-.707 0-1.338-.17-1.893-.51-.554-.339-.984-.824-1.289-1.453-.304-.633-.459-1.359-.463-2.179v-.422c0-.84.151-1.578.452-2.215.304-.641.732-1.131 1.283-1.471.554-.344 1.187-.515 1.898-.515.711 0 1.342.171 1.893.515.554.34.982.83 1.283 1.471.305.637.457 1.373.457 2.209v.381zm-1.781-.387c0-.895-.16-1.574-.481-2.039-.32-.465-.777-.697-1.371-.697-.59 0-1.045.23-1.365.691-.32.457-.482 1.129-.486 2.016v.416c0 .871.16 1.547.48 2.027.32.481.781.721 1.383.721.59 0 1.043-.231 1.359-.692.317-.465.477-1.14.481-2.027v-.416zM20.918 283.252v-8.531h2.625c.75 0 1.42.17 2.01.509a3.507 3.507 0 011.388 1.442c.332.621.498 1.328.498 2.121v.393c0 .793-.164 1.498-.492 2.115a3.486 3.486 0 01-1.377 1.435c-.593.34-1.263.512-2.01.516h-2.642zm1.758-7.107v5.695h.85c.687 0 1.212-.225 1.576-.674.363-.449.548-1.092.556-1.928v-.451c0-.867-.18-1.523-.539-1.969-.36-.449-.885-.673-1.576-.673h-.867zm11.234 5.349h-3.082l-.586 1.758h-1.869l3.176-8.531h1.629l3.193 8.531h-1.869l-.592-1.758zm-2.607-1.424h2.132l-1.072-3.193-1.06 3.193zm8.123 1.77h3.732v1.412h-5.49v-8.531h1.758v7.119zm9.67-.826c0-.332-.117-.586-.352-.762-.234-.18-.656-.367-1.266-.563-.609-.199-1.091-.394-1.447-.585-.968-.524-1.453-1.229-1.453-2.116 0-.461.129-.871.387-1.23.262-.363.635-.647 1.119-.85a4.236 4.236 0 011.64-.304c.61 0 1.153.111 1.63.334a2.55 2.55 0 011.107.931c.266.402.398.86.398 1.371h-1.757c0-.39-.123-.693-.37-.908-.246-.219-.591-.328-1.037-.328-.43 0-.763.092-1.002.275a.852.852 0 00-.357.715c0 .277.139.51.416.697.281.188.693.364 1.236.528 1 .301 1.729.674 2.186 1.119.457.445.685 1 .685 1.664 0 .738-.279 1.318-.837 1.74-.56.418-1.311.627-2.256.627a4.391 4.391 0 01-1.793-.357c-.54-.242-.951-.573-1.237-.991-.28-.417-.421-.902-.421-1.453h1.763c0 .942.563 1.412 1.688 1.412.418 0 .744-.084.978-.251a.838.838 0 00.352-.715zm-1.389-7.746l.855-.838h1.448v.064l-1.77 1.647h-1.072l-1.77-1.659v-.052h1.448l.861.838zm6.717 9.984h-1.758v-8.531h1.758v8.531zm-.545-10.834h1.846l-1.623 1.816h-1.377l1.154-1.816zm12.625 2.303v5.619c0 .933-.293 1.672-.879 2.215-.582.543-1.379.814-2.39.814-.997 0-1.788-.264-2.374-.791-.586-.527-.884-1.252-.896-2.174v-5.683h1.758v5.631c0 .558.133.966.398 1.224.27.254.64.381 1.113.381.989 0 1.49-.519 1.506-1.559v-5.677h1.764zm3.805 7.119h4.3v1.412h-6.498v-1.031l4.22-6.076h-4.214v-1.424h6.399v1.008l-4.207 6.111zm1.06-8.572l.856-.838h1.447v.064l-1.77 1.647H70.83l-1.77-1.659v-.052h1.448l.861.838zm6.723 9.984h-1.758v-8.531h1.758v8.531zm8.38-7.107H83.86v7.107h-1.757v-7.107h-2.579v-1.424h6.95v1.424zm6.641 3.41h-3.375v2.285H93.7v1.412h-5.718v-8.531h5.707v1.424h-3.95v2.033h3.375v1.377zm8.815.855c-.067.918-.407 1.641-1.02 2.168-.609.527-1.414.791-2.414.791-1.094 0-1.955-.367-2.584-1.101-.625-.739-.937-1.75-.937-3.036v-.521c0-.82.144-1.543.433-2.168.29-.625.701-1.104 1.237-1.436.539-.336 1.164-.503 1.875-.503.984 0 1.777.263 2.378.791.602.527.95 1.267 1.043 2.22h-1.757c-.043-.551-.198-.949-.463-1.195-.262-.25-.662-.375-1.201-.375-.586 0-1.026.211-1.319.633-.289.418-.437 1.068-.445 1.951v.644c0 .922.139 1.596.416 2.022.281.426.723.639 1.324.639.543 0 .947-.123 1.213-.37.27-.25.424-.634.463-1.154h1.758zm-3.428-7.189l.856-.838h1.447v.064l-1.77 1.647h-1.072l-1.77-1.658v-.053h1.448l.861.838zm12.02 10.031h-1.758l-3.422-5.613v5.613h-1.758v-8.531h1.758l3.428 5.625v-5.625h1.752v8.531zm4.812-4.688l1.775-3.843h1.922l-2.8 5.437v3.094h-1.788v-3.094l-2.8-5.437h1.927l1.764 3.843zm.357-6.128h1.846l-1.623 1.816h-1.377l1.154-1.816zm15.116 6.744c0 .84-.149 1.576-.446 2.209-.297.632-.722 1.121-1.277 1.465-.551.343-1.184.515-1.898.515-.707 0-1.338-.17-1.893-.51-.555-.339-.984-.824-1.289-1.453-.305-.633-.459-1.359-.463-2.179v-.422c0-.84.15-1.578.451-2.215.305-.641.733-1.131 1.283-1.471.555-.344 1.188-.515 1.899-.515.711 0 1.342.171 1.892.515.555.34.983.83 1.284 1.471.304.637.457 1.373.457 2.209v.381zm-1.782-.387c0-.895-.16-1.574-.48-2.039-.32-.465-.777-.697-1.371-.697-.59 0-1.045.23-1.365.691-.321.457-.483 1.129-.487 2.016v.416c0 .871.16 1.547.481 2.027.32.481.781.721 1.383.721.589 0 1.043-.231 1.359-.692.316-.465.477-1.14.48-2.027v-.416zm3.559 4.459v-8.531h2.625c.75 0 1.42.17 2.01.509a3.504 3.504 0 011.388 1.442c.333.621.499 1.328.499 2.121v.393c0 .793-.165 1.498-.493 2.115a3.483 3.483 0 01-1.377 1.435c-.593.34-1.263.512-2.009.516h-2.643zm1.758-7.107v5.695h.849c.688 0 1.213-.225 1.577-.674.363-.449.548-1.092.556-1.928v-.451c0-.867-.179-1.523-.539-1.969-.359-.449-.885-.673-1.576-.673h-.867zm9.219 3.685l-.914.984v2.438h-1.758v-8.531h1.758v3.867l.773-1.061 2.174-2.806h2.162l-3.029 3.791 3.117 4.74h-2.092l-2.191-3.422zm10.261 1.664h-3.082l-.586 1.758h-1.869l3.176-8.531h1.629l3.193 8.531h-1.869l-.592-1.758zm-2.607-1.424h2.133l-1.073-3.193-1.06 3.193zm8.228 1.77h4.301v1.412h-6.498v-1.031l4.219-6.076h-4.213v-1.424h6.398v1.008l-4.207 6.111zM20.156 104.424h168.455v.586H20.156v-.586zm0 36h187.108v.586H20.156v-.586zm0 36H182.83v.586H20.156v-.586zm0 36h101.492v.586H20.156v-.586zm0 36h149.192v.586H20.156v-.586zm0 36h143.932v.586H20.156v-.586z" fill="#fff"/><path opacity=".2" d="M20 307.241h335" stroke="#fff" stroke-linecap="square"/><path d="M22.848 350.839v3.006H21.09v-8.531h3.328c.64 0 1.203.117 1.688.352.488.234.863.568 1.124 1.002.262.429.393.92.393 1.47 0 .836-.287 1.496-.861 1.981-.57.48-1.362.72-2.373.72h-1.541zm0-1.423h1.57c.465 0 .818-.11 1.06-.328.247-.219.37-.532.37-.938 0-.418-.123-.756-.37-1.014-.246-.257-.585-.39-1.019-.398h-1.611v2.678zm9.646 1.306h-1.4v3.123h-1.758v-8.531h3.17c1.008 0 1.785.225 2.332.674.547.449.82 1.084.82 1.904 0 .582-.127 1.069-.38 1.459-.25.387-.631.696-1.143.926l1.846 3.486v.082h-1.887l-1.6-3.123zm-1.4-1.424h1.418c.441 0 .783-.111 1.025-.334.242-.226.363-.537.363-.931 0-.403-.115-.719-.345-.949-.227-.231-.577-.346-1.05-.346h-1.411v2.56zm13.414.475c0 .84-.149 1.576-.446 2.209-.296.633-.722 1.121-1.277 1.465-.55.344-1.183.516-1.898.516-.707 0-1.338-.17-1.893-.51-.554-.34-.984-.824-1.289-1.453-.305-.633-.459-1.36-.463-2.18v-.422c0-.84.15-1.578.451-2.215.305-.64.733-1.131 1.284-1.47.554-.344 1.187-.516 1.898-.516.71 0 1.342.172 1.893.516.554.339.982.83 1.283 1.47.304.637.457 1.373.457 2.209v.381zm-1.781-.387c0-.894-.16-1.574-.48-2.039-.321-.465-.778-.697-1.372-.697-.59 0-1.045.23-1.365.691-.32.457-.483 1.129-.487 2.016v.416c0 .871.16 1.547.48 2.027.321.481.782.721 1.384.721.59 0 1.043-.23 1.36-.691.316-.465.476-1.141.48-2.028v-.416zm10.502 4.459H51.47v-3.656h-3.428v3.656h-1.758v-8.531h1.758v3.457h3.428v-3.457h1.758v8.531zm3.798-1.412h3.733v1.412h-5.49v-8.531h1.757v7.119zm10.18-.345h-3.082l-.586 1.757h-1.87l3.177-8.531h1.629l3.193 8.531h-1.87l-.591-1.757zm-2.607-1.424h2.132l-1.072-3.194-1.06 3.194zm1.423-7.635h1.846l-1.623 1.816H64.87l1.154-1.816zm9.366 8.578c0-.332-.117-.586-.352-.762-.234-.179-.656-.367-1.266-.562-.609-.199-1.091-.395-1.447-.586-.968-.524-1.453-1.229-1.453-2.115 0-.461.129-.871.387-1.231.261-.363.635-.646 1.119-.849a4.218 4.218 0 011.64-.305c.61 0 1.153.111 1.63.334.476.219.845.529 1.107.932.265.402.398.859.398 1.371h-1.758c0-.391-.123-.694-.369-.909-.246-.218-.591-.328-1.037-.328-.43 0-.763.092-1.002.276a.85.85 0 00-.357.715c0 .277.139.509.416.697.281.187.693.363 1.236.527 1 .301 1.729.674 2.186 1.119.457.446.685 1 .685 1.664 0 .739-.279 1.319-.838 1.741-.558.418-1.31.627-2.255.627-.657 0-1.254-.12-1.793-.358-.54-.242-.952-.572-1.237-.99-.281-.418-.422-.902-.422-1.453h1.764c0 .941.563 1.412 1.688 1.412.418 0 .744-.084.978-.252a.837.837 0 00.352-.715zM74 343.861l.856-.838h1.447v.065l-1.77 1.646h-1.072l-1.77-1.658v-.053h1.448l.861.838zm9.98 6.287h-3.374v2.285h3.96v1.412h-5.718v-8.531h5.707v1.424h-3.95v2.033h3.376v1.377zm9.055 3.697h-1.758l-3.421-5.613v5.613h-1.758v-8.531h1.758l3.427 5.625v-5.625h1.752v8.531zm3.904 0h-1.757v-8.531h1.757v8.531zm-.544-10.834h1.845l-1.623 1.817H95.24l1.154-1.817zm10.984 9.077h-3.082l-.586 1.757h-1.869l3.176-8.531h1.628l3.194 8.531h-1.869l-.592-1.757zm-2.608-1.424h2.133l-1.072-3.194-1.061 3.194zm11.612.175v3.006h-1.758v-8.531h3.328c.641 0 1.203.117 1.688.352a2.58 2.58 0 011.125 1.002c.261.429.392.92.392 1.47 0 .836-.287 1.496-.861 1.981-.57.48-1.361.72-2.373.72h-1.541zm0-1.423h1.57c.465 0 .818-.11 1.061-.328.246-.219.369-.532.369-.938 0-.418-.123-.756-.369-1.014-.246-.257-.586-.39-1.02-.398h-1.611v2.678zm9.646 1.306h-1.4v3.123h-1.758v-8.531h3.17c1.008 0 1.785.225 2.332.674.547.449.82 1.084.82 1.904 0 .582-.127 1.069-.381 1.459-.25.387-.63.696-1.142.926l1.846 3.486v.082h-1.887l-1.6-3.123zm-1.4-1.424h1.418c.441 0 .783-.111 1.025-.334.242-.226.364-.537.364-.931 0-.403-.116-.719-.346-.949-.227-.231-.576-.346-1.049-.346h-1.412v2.56zm.984-5.437l.856-.838h1.447v.065l-1.77 1.646h-1.072l-1.769-1.658v-.053h1.447l.861.838zm7.291 9.984h-1.758v-8.531h1.758v8.531zm-.545-10.834h1.846l-1.623 1.817h-1.377l1.154-1.817zm7.104 8.596c0-.332-.117-.586-.352-.762-.234-.179-.656-.367-1.265-.562-.61-.199-1.092-.395-1.448-.586-.968-.524-1.453-1.229-1.453-2.115 0-.461.129-.871.387-1.231.262-.363.635-.646 1.119-.849a4.217 4.217 0 011.641-.305c.609 0 1.152.111 1.629.334.476.219.845.529 1.107.932.266.402.399.859.399 1.371h-1.758c0-.391-.123-.694-.369-.909-.246-.218-.592-.328-1.038-.328-.429 0-.763.092-1.001.276a.85.85 0 00-.358.715c0 .277.139.509.416.697.281.187.693.363 1.236.527 1 .301 1.729.674 2.186 1.119.457.446.686 1 .686 1.664 0 .739-.28 1.319-.838 1.741-.559.418-1.311.627-2.256.627-.656 0-1.254-.12-1.793-.358-.539-.242-.951-.572-1.236-.99-.282-.418-.422-.902-.422-1.453h1.763c0 .941.563 1.412 1.688 1.412.418 0 .744-.084.978-.252a.836.836 0 00.352-.715zm9.881-4.869h-2.614v7.107h-1.757v-7.107h-2.578v-1.424h6.949v1.424zm7.965-1.424v5.619c0 .934-.293 1.672-.879 2.215-.582.543-1.379.815-2.391.815-.996 0-1.787-.264-2.373-.791-.586-.528-.885-1.252-.896-2.174v-5.684h1.757v5.631c0 .559.133.967.399 1.225.269.253.64.38 1.113.38.988 0 1.49-.519 1.506-1.558v-5.678h1.764zm3.699 5.525v3.006h-1.758v-8.531h3.328c.641 0 1.203.117 1.688.352a2.58 2.58 0 011.125 1.002c.261.429.392.92.392 1.47 0 .836-.287 1.496-.861 1.981-.57.48-1.361.72-2.373.72h-1.541zm0-1.423h1.57c.465 0 .818-.11 1.061-.328.246-.219.369-.532.369-.938 0-.418-.123-.756-.369-1.014-.246-.257-.586-.39-1.02-.398h-1.611v2.678zm13.426 4.429h-1.758l-3.422-5.613v5.613h-1.758v-8.531h1.758l3.428 5.625v-5.625h1.752v8.531zm9.043-4.072c0 .84-.149 1.576-.446 2.209-.297.633-.722 1.121-1.277 1.465-.551.344-1.184.516-1.899.516-.707 0-1.337-.17-1.892-.51-.555-.34-.984-.824-1.289-1.453-.305-.633-.459-1.36-.463-2.18v-.422c0-.84.15-1.578.451-2.215.305-.64.733-1.131 1.283-1.47.555-.344 1.188-.516 1.899-.516.711 0 1.342.172 1.892.516.555.339.983.83 1.284 1.47.304.637.457 1.373.457 2.209v.381zm-1.782-.387c0-.894-.16-1.574-.48-2.039-.32-.465-.777-.697-1.371-.697-.59 0-1.045.23-1.365.691-.321.457-.483 1.129-.487 2.016v.416c0 .871.16 1.547.481 2.027.32.481.781.721 1.382.721.59 0 1.043-.23 1.36-.691.316-.465.476-1.141.48-2.028v-.416zm7.983 2.221c0-.332-.117-.586-.352-.762-.234-.179-.656-.367-1.265-.562-.61-.199-1.092-.395-1.448-.586-.968-.524-1.453-1.229-1.453-2.115 0-.461.129-.871.387-1.231.262-.363.635-.646 1.119-.849a4.217 4.217 0 011.641-.305c.609 0 1.152.111 1.629.334.476.219.845.529 1.107.932.266.402.398.859.398 1.371h-1.757c0-.391-.123-.694-.37-.909-.246-.218-.591-.328-1.037-.328-.429 0-.763.092-1.002.276a.851.851 0 00-.357.715c0 .277.139.509.416.697.281.187.693.363 1.236.527 1 .301 1.729.674 2.186 1.119.457.446.685 1 .685 1.664 0 .739-.279 1.319-.837 1.741-.559.418-1.311.627-2.256.627a4.39 4.39 0 01-1.793-.358c-.539-.242-.951-.572-1.237-.99-.281-.418-.422-.902-.422-1.453h1.764c0 .941.563 1.412 1.688 1.412.418 0 .744-.084.978-.252a.836.836 0 00.352-.715zm9.881-4.869h-2.614v7.107h-1.757v-7.107h-2.579v-1.424h6.95v1.424zm3.377 7.107h-1.758v-8.531h1.758v8.531zM20.328 355.017h183.475v.586H20.328v-.586zM29.033 377.849h-1.758v-3.657h-3.427v3.657H22.09v-8.532h1.758v3.457h3.427v-3.457h1.758v8.532zm3.91 0h-1.757v-8.532h1.757v8.532zm6.559-2.239c0-.332-.117-.586-.352-.761-.234-.18-.656-.368-1.265-.563-.61-.199-1.092-.395-1.447-.586-.97-.523-1.454-1.228-1.454-2.115 0-.461.13-.871.387-1.231.262-.363.635-.646 1.12-.849a4.237 4.237 0 011.64-.305c.61 0 1.152.111 1.629.334.476.219.846.529 1.107.932.266.402.399.859.399 1.371h-1.758c0-.391-.123-.694-.37-.908-.245-.219-.591-.329-1.036-.329-.43 0-.764.092-1.002.276a.852.852 0 00-.358.715c0 .277.139.509.416.697.282.187.694.363 1.236.527 1 .301 1.729.674 2.186 1.119.457.446.686 1 .686 1.665 0 .738-.28 1.318-.838 1.74-.559.418-1.31.627-2.256.627a4.375 4.375 0 01-1.793-.358c-.54-.242-.951-.572-1.236-.99-.282-.418-.422-.902-.422-1.453h1.763c0 .941.563 1.412 1.688 1.412.418 0 .744-.084.978-.252a.837.837 0 00.352-.715zm9.88-4.869H46.77v7.108h-1.758v-7.108h-2.578v-1.424h6.949v1.424zm8.352 3.035c0 .84-.148 1.576-.445 2.209-.297.633-.723 1.121-1.277 1.465-.551.344-1.184.516-1.899.516-.707 0-1.338-.17-1.892-.51-.555-.34-.985-.824-1.29-1.453-.304-.633-.458-1.36-.462-2.18v-.422c0-.84.15-1.578.45-2.215.306-.64.733-1.13 1.284-1.47.555-.344 1.188-.516 1.899-.516.71 0 1.341.172 1.892.516.555.34.983.83 1.283 1.47.305.637.457 1.373.457 2.209v.381zm-1.78-.386c0-.895-.161-1.575-.481-2.04-.32-.464-.778-.697-1.371-.697-.59 0-1.045.231-1.366.692-.32.457-.482 1.129-.486 2.015v.416c0 .871.16 1.547.48 2.028.32.48.782.72 1.383.72.59 0 1.043-.23 1.36-.691.316-.465.476-1.141.48-2.027v-.416zm6.716 1.335h-1.4v3.124h-1.758v-8.532h3.17c1.008 0 1.785.225 2.332.674.547.449.82 1.084.82 1.904 0 .582-.127 1.069-.38 1.459-.25.387-.632.696-1.143.926l1.845 3.486v.083H64.27l-1.6-3.124zm-1.4-1.423h1.417c.442 0 .784-.112 1.026-.334.242-.227.363-.537.363-.932 0-.402-.115-.719-.345-.949-.227-.231-.577-.346-1.05-.346H61.27v2.561zm8.275 4.547h-1.758v-8.532h1.758v8.532zm7.267-3.698h-3.374v2.285h3.96v1.413H71.68v-8.532h5.707v1.424h-3.95v2.033h3.376v1.377zm7.364.692v3.006h-1.758v-8.532h3.328c.64 0 1.203.117 1.688.352.488.234.863.568 1.125 1.002.261.429.392.92.392 1.47 0 .836-.287 1.497-.861 1.981-.57.48-1.362.721-2.373.721h-1.541zm0-1.424h1.57c.465 0 .819-.11 1.06-.328.247-.219.37-.532.37-.938 0-.418-.123-.756-.37-1.013-.245-.258-.585-.391-1.019-.399h-1.611v2.678zm9.646 1.306h-1.4v3.124h-1.758v-8.532h3.17c1.008 0 1.785.225 2.332.674.547.449.82 1.084.82 1.904 0 .582-.127 1.069-.38 1.459-.25.387-.631.696-1.143.926l1.846 3.486v.083h-1.887l-1.6-3.124zm-1.4-1.423h1.418c.441 0 .783-.112 1.025-.334.242-.227.364-.537.364-.932 0-.402-.116-.719-.346-.949-.227-.231-.576-.346-1.049-.346h-1.412v2.561zm.984-5.438l.856-.838h1.447v.065l-1.77 1.646h-1.072l-1.77-1.658v-.053h1.448l.861.838zm7.291 9.985h-1.758v-8.532h1.758v8.532zm-.545-10.834h1.846l-1.623 1.816h-1.377l1.154-1.816zm7.104 8.595c0-.332-.117-.586-.352-.761-.234-.18-.656-.368-1.265-.563-.61-.199-1.092-.395-1.448-.586-.968-.523-1.453-1.228-1.453-2.115 0-.461.129-.871.387-1.231.262-.363.635-.646 1.119-.849a4.236 4.236 0 011.641-.305c.609 0 1.152.111 1.629.334.476.219.845.529 1.107.932.266.402.399.859.399 1.371h-1.758c0-.391-.123-.694-.369-.908-.247-.219-.592-.329-1.038-.329-.429 0-.763.092-1.001.276a.85.85 0 00-.358.715c0 .277.139.509.416.697.281.187.693.363 1.236.527 1 .301 1.729.674 2.186 1.119.457.446.686 1 .686 1.665 0 .738-.28 1.318-.838 1.74-.559.418-1.311.627-2.256.627a4.376 4.376 0 01-1.793-.358c-.539-.242-.951-.572-1.237-.99-.281-.418-.421-.902-.421-1.453h1.763c0 .941.563 1.412 1.688 1.412.418 0 .744-.084.978-.252a.836.836 0 00.352-.715zm9.881-4.869h-2.614v7.108h-1.757v-7.108h-2.578v-1.424h6.949v1.424zm7.965-1.424v5.619c0 .934-.293 1.672-.879 2.215-.582.543-1.379.815-2.391.815-.996 0-1.787-.264-2.373-.791-.586-.528-.885-1.252-.897-2.174v-5.684h1.758v5.631c0 .559.133.967.399 1.225.269.254.64.381 1.113.381.988 0 1.49-.52 1.506-1.559v-5.678h1.764zm3.699 5.526v3.006h-1.758v-8.532h3.328c.641 0 1.203.117 1.688.352a2.58 2.58 0 011.125 1.002c.261.429.392.92.392 1.47 0 .836-.287 1.497-.861 1.981-.57.48-1.361.721-2.373.721h-1.541zm0-1.424h1.57c.465 0 .818-.11 1.061-.328.246-.219.369-.532.369-.938 0-.418-.123-.756-.369-1.013-.246-.258-.586-.391-1.02-.399h-1.611v2.678zm12.945-4.102v5.619c0 .934-.293 1.672-.879 2.215-.582.543-1.379.815-2.39.815-.997 0-1.788-.264-2.373-.791-.586-.528-.885-1.252-.897-2.174v-5.684h1.758v5.631c0 .559.133.967.398 1.225.27.254.641.381 1.114.381.988 0 1.49-.52 1.505-1.559v-5.678h1.764zm-4.594-1.605c0-.336.127-.619.381-.85.254-.234.563-.351.926-.351.359 0 .666.115.92.345.258.227.387.512.387.856 0 .332-.125.611-.375.838a1.34 1.34 0 01-.932.34c-.379 0-.691-.116-.938-.346a1.1 1.1 0 01-.369-.832zm.674 0c0 .172.057.32.17.445a.604.604 0 00.463.182c.195 0 .35-.061.463-.182a.641.641 0 00.17-.445c0-.18-.059-.33-.176-.451a.587.587 0 00-.457-.188.606.606 0 00-.463.188.635.635 0 00-.17.451zM21.328 379.02h121.098v.586H21.328v-.586z" fill="#fff"/><path opacity=".5" d="M26.531 470.901h-5.736v-.978l2.842-3.1c.41-.457.7-.838.873-1.143.175-.308.263-.617.263-.925 0-.407-.115-.735-.345-.985-.227-.25-.534-.375-.92-.375-.461 0-.819.141-1.072.422-.254.281-.381.666-.381 1.154H20.63c0-.519.117-.986.351-1.4a2.463 2.463 0 011.014-.973c.442-.23.95-.345 1.524-.345.828 0 1.48.209 1.957.627.48.414.72.988.72 1.722 0 .426-.12.873-.363 1.342-.238.465-.63.994-1.178 1.588l-2.086 2.232h3.961v1.137zm7.145-3.592c0 1.227-.23 2.153-.692 2.778-.457.621-1.154.931-2.091.931-.922 0-1.618-.302-2.086-.908-.465-.609-.703-1.51-.715-2.701v-1.477c0-1.226.228-2.146.685-2.759.461-.614 1.162-.92 2.104-.92.933 0 1.629.299 2.086.896.46.598.697 1.492.709 2.684v1.476zm-1.424-1.593c0-.801-.11-1.387-.328-1.758-.219-.375-.567-.563-1.043-.563-.465 0-.807.178-1.026.533-.218.352-.334.903-.345 1.653v1.933c0 .797.111 1.391.334 1.782.222.39.572.586 1.049.586.457 0 .794-.18 1.013-.539.219-.364.334-.93.346-1.7v-1.927zm8.92 5.185h-5.736v-.978l2.841-3.1c.41-.457.701-.838.873-1.143.176-.308.264-.617.264-.925 0-.407-.115-.735-.346-.985-.226-.25-.533-.375-.92-.375-.46 0-.818.141-1.072.422-.254.281-.38.666-.38 1.154h-1.424c0-.519.117-.986.351-1.4a2.463 2.463 0 011.014-.973c.441-.23.949-.345 1.523-.345.828 0 1.48.209 1.957.627.48.414.72.988.72 1.722 0 .426-.12.873-.362 1.342-.239.465-.631.994-1.178 1.588l-2.086 2.232h3.96v1.137zm7.144-3.592c0 1.227-.23 2.153-.691 2.778-.457.621-1.154.931-2.092.931-.922 0-1.617-.302-2.086-.908-.465-.609-.703-1.51-.715-2.701v-1.477c0-1.226.229-2.146.686-2.759.46-.614 1.162-.92 2.104-.92.933 0 1.628.299 2.085.896.461.598.698 1.492.71 2.684v1.476zm-1.423-1.593c0-.801-.11-1.387-.328-1.758-.22-.375-.567-.563-1.043-.563-.465 0-.807.178-1.026.533-.219.352-.334.903-.346 1.653v1.933c0 .797.112 1.391.334 1.782.223.39.573.586 1.05.586.456 0 .794-.18 1.013-.539.219-.364.334-.93.346-1.7v-1.927zm12.584 1.693c0 .594-.172 1.049-.516 1.365-.34.317-.822.475-1.447.475-.625 0-1.123-.207-1.495-.621-.367-.418-.55-.979-.55-1.682v-.662c0-.68.185-1.227.556-1.641.375-.418.872-.627 1.489-.627.636 0 1.123.162 1.459.487.34.32.51.771.51 1.353h-.915c0-.375-.09-.642-.27-.803-.179-.164-.44-.246-.784-.246-.36 0-.641.133-.844.399-.2.265-.299.629-.299 1.09v.685c0 .461.102.822.305 1.084.203.262.482.393.838.393.347 0 .609-.078.785-.235.176-.16.264-.431.264-.814h.914zm1.558-.779c0-.649-.146-1.25-.44-1.805a3.404 3.404 0 00-1.242-1.336 3.241 3.241 0 00-1.757-.504c-.621 0-1.2.16-1.735.481-.53.32-.949.761-1.254 1.324a3.8 3.8 0 00-.457 1.84c0 .664.15 1.277.452 1.839a3.492 3.492 0 001.254 1.336 3.291 3.291 0 001.74.487 3.24 3.24 0 001.74-.498c.539-.332.957-.78 1.254-1.342.297-.563.445-1.17.445-1.822zm-7.6 0c0-.789.182-1.522.545-2.198a4.107 4.107 0 011.518-1.593 3.99 3.99 0 012.098-.586c.75 0 1.447.195 2.092.586a4.065 4.065 0 011.511 1.593c.367.676.551 1.409.551 2.198 0 .789-.184 1.521-.55 2.197a4.16 4.16 0 01-1.507 1.605c-.64.391-1.34.586-2.097.586a3.97 3.97 0 01-2.098-.586 4.158 4.158 0 01-1.512-1.599 4.54 4.54 0 01-.55-2.203zm15.667-4.26l2.46 6.539 2.456-6.539h1.916v8.531h-1.477v-2.812l.147-3.762-2.52 6.574h-1.06l-2.514-6.568.146 3.756v2.812H67.18v-8.531h1.922zm10.654 8.531h-1.477v-8.531h1.477v8.531zm9.09 0h-1.483l-3.802-6.053v6.053h-1.483v-8.531h1.483l3.814 6.076v-6.076h1.47v8.531zm3.816 0h-1.477v-8.531h1.477v8.531zm6.781-2.197c0-.375-.132-.664-.398-.867-.262-.203-.736-.409-1.424-.616-.687-.207-1.234-.437-1.64-.691-.778-.488-1.166-1.125-1.166-1.91 0-.688.279-1.254.837-1.699.563-.446 1.291-.668 2.186-.668.594 0 1.123.109 1.588.328.465.219.83.531 1.095.937.266.403.399.85.399 1.342h-1.477c0-.445-.14-.793-.421-1.043-.278-.254-.676-.381-1.196-.381-.484 0-.861.104-1.13.311-.266.207-.4.496-.4.867 0 .313.145.574.434.785.29.207.766.41 1.43.61.664.195 1.197.419 1.6.673.402.25.697.539.885.868.187.324.281.705.281 1.142 0 .711-.274 1.277-.821 1.699-.543.418-1.28.627-2.214.627a4.212 4.212 0 01-1.706-.34c-.515-.23-.917-.546-1.207-.949a2.369 2.369 0 01-.427-1.406h1.482c0 .484.16.859.48 1.125.321.266.78.398 1.378.398.515 0 .902-.103 1.16-.31.261-.211.392-.488.392-.832zm9.448-5.139h-2.661v7.336h-1.47v-7.336h-2.637v-1.195h6.768v1.195zm6.611 3.528h-3.504v2.625h4.096v1.183h-5.578v-8.531h5.537v1.195h-4.055v2.356h3.504v1.172zm5.434.521h-1.653v3.287h-1.482v-8.531h3c.984 0 1.744.221 2.279.662.535.441.803 1.08.803 1.916 0 .57-.139 1.049-.416 1.436-.274.382-.656.677-1.149.884l1.916 3.557v.076h-1.588l-1.71-3.287zm-1.653-1.189h1.524c.5 0 .89-.125 1.172-.375.281-.254.421-.6.421-1.038 0-.457-.13-.81-.392-1.06-.258-.25-.645-.379-1.16-.387h-1.565v2.86zm10.965 2.279c0-.375-.133-.664-.398-.867-.262-.203-.737-.409-1.424-.616-.688-.207-1.235-.437-1.641-.691-.777-.488-1.166-1.125-1.166-1.91 0-.688.279-1.254.838-1.699.563-.446 1.291-.668 2.186-.668.593 0 1.123.109 1.587.328.465.219.831.531 1.096.937.266.403.399.85.399 1.342h-1.477c0-.445-.141-.793-.422-1.043-.277-.254-.676-.381-1.195-.381-.485 0-.861.104-1.131.311-.266.207-.398.496-.398.867 0 .313.144.574.433.785.289.207.766.41 1.43.61.664.195 1.197.419 1.599.673.403.25.698.539.885.868.188.324.281.705.281 1.142 0 .711-.273 1.277-.82 1.699-.543.418-1.281.627-2.215.627a4.214 4.214 0 01-1.705-.34c-.515-.23-.918-.546-1.207-.949a2.37 2.37 0 01-.428-1.406h1.483c0 .484.16.859.48 1.125.321.266.78.398 1.377.398.516 0 .903-.103 1.16-.31.262-.211.393-.488.393-.832zm9.447-5.139h-2.66v7.336h-1.471v-7.336h-2.636v-1.195h6.767v1.195zm4.725 5.479l2.168-6.674h1.629l-3.071 8.531h-1.435l-3.059-8.531h1.623l2.145 6.674zm11.99-2.186c0 .836-.144 1.57-.433 2.203-.289.629-.704 1.114-1.243 1.453-.535.336-1.152.504-1.851.504-.692 0-1.309-.168-1.852-.504-.539-.339-.957-.822-1.254-1.447-.293-.625-.441-1.346-.445-2.162v-.48c0-.832.147-1.567.439-2.204.297-.636.713-1.123 1.249-1.459.539-.339 1.156-.509 1.851-.509.695 0 1.311.168 1.846.504.539.332.955.812 1.248 1.441.293.625.441 1.354.445 2.186v.474zm-1.482-.445c0-.945-.18-1.67-.539-2.174-.356-.504-.862-.756-1.518-.756-.641 0-1.142.252-1.506.756-.359.5-.543 1.209-.551 2.127v.492c0 .938.182 1.662.545 2.174.368.512.875.768 1.524.768.656 0 1.16-.25 1.512-.75.355-.5.533-1.231.533-2.192v-.445zm9.953 2.631l2.168-6.674h1.629l-3.071 8.531h-1.435l-3.059-8.531h1.623l2.145 6.674zm12.031 1.857h-1.482l-3.803-6.053v6.053h-1.482v-8.531h1.482l3.814 6.076v-6.076h1.471v8.531zm3.817 0h-1.477v-8.531h1.477v8.531zm8.31-7.336h-2.66v7.336h-1.471v-7.336h-2.637v-1.195h6.768v1.195zm4.76 4.049h-1.653v3.287h-1.482v-8.531h3c.984 0 1.744.221 2.279.662.536.441.803 1.08.803 1.916 0 .57-.139 1.049-.416 1.436-.273.382-.656.677-1.148.884l1.916 3.557v.076h-1.588l-1.711-3.287zm-1.653-1.189h1.524c.5 0 .891-.125 1.172-.375.281-.254.422-.6.422-1.038 0-.457-.131-.81-.393-1.06-.258-.25-.644-.379-1.16-.387h-1.565v2.86zm11.282 2.49h-3.305l-.691 1.986h-1.541l3.222-8.531h1.33l3.229 8.531h-1.547l-.697-1.986zm-2.889-1.196h2.473l-1.237-3.539-1.236 3.539zm10.023-1.335c0-.372.118-.674.352-.909.238-.238.553-.357.943-.357.403 0 .721.119.955.357.235.235.352.543.352.926v.217c0 .367-.117.668-.352.902-.23.231-.546.346-.949.346-.386 0-.699-.111-.937-.334-.235-.227-.356-.522-.364-.885v-.263zm9.819 4.517h-1.477v-8.531h1.477v8.531zm9.09 0h-1.483l-3.802-6.053v6.053h-1.483v-8.531h1.483l3.814 6.076v-6.076h1.471v8.531zm7.168-3.615h-3.434v3.615h-1.482v-8.531h5.42v1.195h-3.938v2.537h3.434v1.184zm8.99-.428c0 .836-.145 1.57-.434 2.203-.289.629-.703 1.114-1.242 1.453-.535.336-1.152.504-1.851.504-.692 0-1.309-.168-1.852-.504-.539-.339-.957-.822-1.254-1.447-.293-.625-.441-1.346-.445-2.162v-.48c0-.832.146-1.567.439-2.204.297-.636.713-1.123 1.248-1.459.539-.339 1.157-.509 1.852-.509.695 0 1.31.168 1.846.504.539.332.955.812 1.248 1.441.293.625.441 1.354.445 2.186v.474zm-1.483-.445c0-.945-.179-1.67-.539-2.174-.355-.504-.861-.756-1.517-.756-.641 0-1.143.252-1.506.756-.359.5-.543 1.209-.551 2.127v.492c0 .938.182 1.662.545 2.174.367.512.875.768 1.524.768.656 0 1.16-.25 1.511-.75.356-.5.533-1.231.533-2.192v-.445zm6.594 1.201h-1.652v3.287h-1.483v-8.531h3c.985 0 1.745.221 2.28.662.535.441.803 1.08.803 1.916 0 .57-.139 1.049-.417 1.436-.273.382-.656.677-1.148.884l1.916 3.557v.076h-1.588l-1.711-3.287zm-1.652-1.189h1.523c.5 0 .891-.125 1.172-.375.281-.254.422-.6.422-1.038 0-.457-.131-.81-.393-1.06-.257-.25-.644-.379-1.16-.387h-1.564v2.86zm8.428-4.055l2.461 6.539 2.455-6.539h1.916v8.531h-1.477v-2.812l.147-3.762-2.52 6.574h-1.06l-2.514-6.568.146 3.756v2.812h-1.476v-8.531h1.922zm13.97 6.545h-3.304l-.692 1.986h-1.541l3.223-8.531h1.33l3.228 8.531h-1.546l-.698-1.986zm-2.888-1.196h2.472l-1.236-3.539-1.236 3.539zm12.986.405c-.086.91-.422 1.621-1.008 2.133-.586.507-1.365.761-2.338.761-.679 0-1.279-.16-1.799-.48a3.198 3.198 0 01-1.195-1.377c-.281-.594-.428-1.283-.439-2.068v-.797c0-.805.142-1.514.427-2.127.286-.614.694-1.086 1.225-1.418.535-.332 1.152-.498 1.852-.498.941 0 1.699.256 2.273.767.574.512.908 1.235 1.002 2.168h-1.477c-.07-.613-.25-1.054-.539-1.324-.285-.273-.705-.41-1.259-.41-.645 0-1.141.236-1.489.709-.343.469-.519 1.158-.527 2.068v.756c0 .922.164 1.625.492 2.109.332.485.817.727 1.453.727.582 0 1.02-.131 1.313-.393.293-.261.478-.697.556-1.306h1.477zm6.816-1.031h-3.504v2.625h4.096v1.183h-5.578v-8.531h5.537v1.195h-4.055v2.356h3.504v1.172zM24.516 476.37h1.476v5.982c0 .817-.256 1.465-.767 1.946-.508.48-1.18.72-2.016.72-.89 0-1.578-.224-2.063-.674-.484-.449-.726-1.074-.726-1.875h1.476c0 .454.112.795.334 1.026.227.226.553.34.979.34.398 0 .715-.131.95-.393.238-.265.357-.631.357-1.096v-5.976zm8.134 6.334c0-.375-.132-.664-.398-.867-.262-.203-.736-.409-1.424-.616-.687-.207-1.234-.437-1.64-.691-.778-.488-1.166-1.125-1.166-1.91 0-.688.279-1.254.837-1.699.563-.446 1.291-.668 2.186-.668.594 0 1.123.109 1.588.328a2.6 2.6 0 011.095.937c.266.403.399.85.399 1.342H32.65c0-.445-.14-.793-.422-1.043-.277-.254-.675-.381-1.195-.381-.484 0-.861.104-1.13.311-.266.207-.4.496-.4.867 0 .313.145.574.434.785.29.207.766.41 1.43.61.664.195 1.198.419 1.6.673.402.25.697.539.885.868.187.324.28.705.28 1.142 0 .711-.273 1.277-.82 1.699-.542.418-1.28.627-2.214.627a4.212 4.212 0 01-1.705-.34c-.516-.23-.918-.546-1.207-.949a2.369 2.369 0 01-.428-1.406h1.482c0 .484.16.859.48 1.125.321.266.78.398 1.378.398.515 0 .902-.103 1.16-.31.261-.211.392-.488.392-.832zm10.092-1.846c0 .836-.144 1.57-.433 2.203-.29.629-.703 1.114-1.243 1.453-.535.336-1.152.504-1.851.504-.692 0-1.309-.168-1.852-.504-.539-.339-.957-.822-1.254-1.447-.293-.625-.441-1.346-.445-2.162v-.48c0-.832.146-1.567.44-2.204.296-.636.712-1.123 1.248-1.459.539-.339 1.156-.509 1.851-.509.695 0 1.31.168 1.846.504.539.332.955.812 1.248 1.441.293.625.441 1.354.445 2.186v.474zm-1.482-.445c0-.945-.18-1.67-.54-2.174-.355-.504-.86-.756-1.517-.756-.64 0-1.143.252-1.506.756-.36.5-.543 1.209-.55 2.127v.492c0 .938.181 1.662.544 2.174.368.512.875.768 1.524.768.656 0 1.16-.25 1.512-.75.355-.5.533-1.231.533-2.192v-.445zm9.699-4.043v5.701c0 .906-.291 1.625-.873 2.156-.578.528-1.35.791-2.314.791-.977 0-1.752-.259-2.327-.779-.574-.523-.861-1.248-.861-2.174v-5.695h1.476v5.707c0 .57.145 1.006.434 1.307.29.3.715.451 1.278.451 1.14 0 1.71-.602 1.71-1.805v-5.66h1.477zm7.059 5.361v3.17h-1.483v-8.531H59.8c.953 0 1.709.248 2.267.744.563.496.844 1.152.844 1.969 0 .836-.275 1.486-.826 1.951-.547.465-1.315.697-2.303.697h-1.763zm0-1.189h1.78c.528 0 .93-.123 1.208-.369.277-.25.416-.61.416-1.079 0-.46-.14-.828-.422-1.101-.281-.277-.668-.42-1.16-.428h-1.822v2.977zm13.501.316c0 .836-.144 1.57-.433 2.203-.29.629-.703 1.114-1.242 1.453-.535.336-1.153.504-1.852.504-.691 0-1.308-.168-1.851-.504-.54-.339-.957-.822-1.254-1.447-.293-.625-.442-1.346-.446-2.162v-.48c0-.832.147-1.567.44-2.204.297-.636.713-1.123 1.248-1.459.539-.339 1.156-.509 1.852-.509.695 0 1.31.168 1.845.504.54.332.955.812 1.248 1.441.293.625.442 1.354.445 2.186v.474zm-1.482-.445c0-.945-.18-1.67-.539-2.174-.355-.504-.861-.756-1.517-.756-.641 0-1.143.252-1.506.756-.36.5-.543 1.209-.551 2.127v.492c0 .938.181 1.662.545 2.174.367.512.875.768 1.523.768.656 0 1.16-.25 1.512-.75.355-.5.533-1.231.533-2.192v-.445zm7.918 2.291c0-.375-.133-.664-.398-.867-.262-.203-.737-.409-1.424-.616-.688-.207-1.235-.437-1.64-.691-.778-.488-1.167-1.125-1.167-1.91 0-.688.28-1.254.838-1.699.563-.446 1.291-.668 2.186-.668.593 0 1.123.109 1.588.328.464.219.83.531 1.095.937.266.403.399.85.399 1.342h-1.477c0-.445-.14-.793-.422-1.043-.277-.254-.676-.381-1.195-.381-.484 0-.861.104-1.131.311-.266.207-.398.496-.398.867 0 .313.144.574.433.785.29.207.766.41 1.43.61.664.195 1.197.419 1.6.673.402.25.697.539.884.868.188.324.281.705.281 1.142 0 .711-.273 1.277-.82 1.699-.543.418-1.281.627-2.215.627a4.212 4.212 0 01-1.705-.34c-.515-.23-.918-.546-1.207-.949a2.369 2.369 0 01-.427-1.406h1.482c0 .484.16.859.48 1.125.32.266.78.398 1.377.398.516 0 .903-.103 1.16-.31.262-.211.393-.488.393-.832zm5.733-1.488l-.967 1.025v2.66h-1.483v-8.531h1.483v4.002l.82-1.014 2.496-2.988h1.793l-3.17 3.779 3.352 4.752h-1.758l-2.567-3.685zm8.404-.803l1.963-4.043h1.64l-2.86 5.39v3.141h-1.487v-3.141l-2.866-5.39h1.647l1.963 4.043zm11.299-2.848h-2.661v7.336h-1.47v-7.336h-2.637v-1.195h6.768v1.195zm8.269 3.293c0 .836-.144 1.57-.433 2.203-.289.629-.704 1.114-1.243 1.453-.535.336-1.152.504-1.851.504-.692 0-1.309-.168-1.852-.504-.539-.339-.957-.822-1.254-1.447-.293-.625-.441-1.346-.445-2.162v-.48c0-.832.147-1.567.439-2.204.297-.636.713-1.123 1.249-1.459.539-.339 1.156-.509 1.851-.509.695 0 1.311.168 1.846.504.539.332.955.812 1.248 1.441.293.625.441 1.354.445 2.186v.474zm-1.482-.445c0-.945-.18-1.67-.539-2.174-.356-.504-.862-.756-1.518-.756-.641 0-1.142.252-1.506.756-.359.5-.543 1.209-.551 2.127v.492c0 .938.182 1.662.545 2.174.368.512.875.768 1.524.768.656 0 1.16-.25 1.512-.75.355-.5.533-1.231.533-2.192v-.445zm6.336 2.631l2.168-6.674h1.629l-3.071 8.531h-1.435l-3.059-8.531h1.623l2.145 6.674zm9.593-.129h-3.304l-.692 1.986h-1.541l3.223-8.531h1.33l3.229 8.531h-1.547l-.698-1.986zm-2.888-1.196h2.472l-1.236-3.539-1.236 3.539zm1.681-7.634h1.623l-1.623 1.775h-1.142l1.142-1.775zm11.692 10.816h-1.483l-3.802-6.053v6.053h-1.483v-8.531h1.483l3.814 6.076v-6.076h1.471v8.531zm4.871-4.488l1.963-4.043h1.64l-2.859 5.39v3.141h-1.488v-3.141l-2.865-5.39h1.646l1.963 4.043zm11.523 2.631l2.168-6.674h1.629l-3.07 8.531h-1.436l-3.058-8.531h1.623l2.144 6.674zm13.211-.34c0-.375-.133-.664-.398-.867-.262-.203-.737-.409-1.424-.616-.687-.207-1.234-.437-1.641-.691-.777-.488-1.166-1.125-1.166-1.91 0-.688.28-1.254.838-1.699.563-.446 1.291-.668 2.186-.668.594 0 1.123.109 1.588.328.465.219.83.531 1.095.937.266.403.399.85.399 1.342h-1.477c0-.445-.14-.793-.422-1.043-.277-.254-.675-.381-1.195-.381-.484 0-.861.104-1.131.311-.265.207-.398.496-.398.867 0 .313.144.574.433.785.289.207.766.41 1.43.61.664.195 1.197.419 1.6.673.402.25.697.539.884.868.188.324.282.705.282 1.142 0 .711-.274 1.277-.821 1.699-.543.418-1.281.627-2.214.627a4.215 4.215 0 01-1.706-.34c-.515-.23-.918-.546-1.207-.949-.285-.402-.427-.871-.427-1.406h1.482c0 .484.16.859.481 1.125.32.266.779.398 1.377.398.515 0 .902-.103 1.16-.31.261-.211.392-.488.392-.832zm10.092-1.846c0 .836-.144 1.57-.434 2.203-.289.629-.703 1.114-1.242 1.453-.535.336-1.152.504-1.851.504-.692 0-1.309-.168-1.852-.504-.539-.339-.957-.822-1.254-1.447-.293-.625-.441-1.346-.445-2.162v-.48c0-.832.146-1.567.439-2.204.297-.636.713-1.123 1.248-1.459.54-.339 1.157-.509 1.852-.509.695 0 1.311.168 1.846.504.539.332.955.812 1.248 1.441.293.625.441 1.354.445 2.186v.474zm-1.482-.445c0-.945-.18-1.67-.539-2.174-.356-.504-.862-.756-1.518-.756-.641 0-1.143.252-1.506.756-.359.5-.543 1.209-.551 2.127v.492c0 .938.182 1.662.545 2.174.367.512.875.768 1.524.768.656 0 1.16-.25 1.511-.75.356-.5.534-1.231.534-2.192v-.445zm9.699-4.043v5.701c0 .906-.291 1.625-.873 2.156-.578.528-1.35.791-2.315.791-.976 0-1.752-.259-2.326-.779-.574-.523-.861-1.248-.861-2.174v-5.695h1.476v5.707c0 .57.145 1.006.434 1.307.289.3.715.451 1.277.451 1.141 0 1.711-.602 1.711-1.805v-5.66h1.477zm3.57 7.348h3.873v1.183h-5.355v-8.531h1.482v7.348zm10.403-.803h-3.305l-.692 1.986h-1.541l3.223-8.531h1.33l3.229 8.531h-1.547l-.697-1.986zm-2.889-1.196h2.472l-1.236-3.539-1.236 3.539zm6.605 3.182v-8.531h2.52c.754 0 1.422.168 2.004.504a3.427 3.427 0 011.359 1.429c.32.618.481 1.325.481 2.122v.427c0 .809-.163 1.52-.487 2.133a3.37 3.37 0 01-1.377 1.418c-.593.332-1.275.498-2.045.498h-2.455zm1.483-7.336v6.153h.967c.777 0 1.373-.243 1.787-.727.418-.488.63-1.188.638-2.098v-.474c0-.926-.201-1.633-.603-2.121-.403-.489-.987-.733-1.752-.733h-1.037zm13.097-1.195v5.701c0 .906-.291 1.625-.873 2.156-.578.528-1.349.791-2.314.791-.977 0-1.752-.259-2.326-.779-.574-.523-.862-1.248-.862-2.174v-5.695h1.477v5.707c0 .57.144 1.006.434 1.307.289.3.714.451 1.277.451 1.141 0 1.711-.602 1.711-1.805v-5.66h1.476zm10.036 6.334c0-.375-.133-.664-.399-.867-.262-.203-.736-.409-1.424-.616-.687-.207-1.234-.437-1.64-.691-.778-.488-1.166-1.125-1.166-1.91 0-.688.279-1.254.838-1.699.562-.446 1.291-.668 2.185-.668.594 0 1.123.109 1.588.328.465.219.83.531 1.096.937.265.403.398.85.398 1.342h-1.476c0-.445-.141-.793-.422-1.043-.278-.254-.676-.381-1.196-.381-.484 0-.861.104-1.131.311-.265.207-.398.496-.398.867 0 .313.145.574.434.785.289.207.765.41 1.429.61.664.195 1.198.419 1.6.673.402.25.697.539.885.868.187.324.281.705.281 1.142 0 .711-.273 1.277-.82 1.699-.543.418-1.282.627-2.215.627a4.21 4.21 0 01-1.705-.34c-.516-.23-.918-.546-1.207-.949a2.37 2.37 0 01-.428-1.406h1.482c0 .484.161.859.481 1.125.32.266.779.398 1.377.398.515 0 .902-.103 1.16-.31.262-.211.393-.488.393-.832zm8.269-1.611h-3.504v2.625h4.096v1.183h-5.578v-8.531h5.537v1.195h-4.055v2.356h3.504v1.172zm7.182 2.625h4.558v1.183h-6.351v-.961l4.412-6.375h-4.383v-1.195h6.182v.937l-4.418 6.411zm11.193-.803h-3.305l-.691 1.986h-1.541l3.223-8.531h1.33l3.228 8.531h-1.547l-.697-1.986zm-2.889-1.196h2.473l-1.236-3.539-1.237 3.539zm1.682-7.634h1.623l-1.623 1.775h-1.143l1.143-1.775zm7.373 7.131l-.967 1.025v2.66h-1.482v-8.531h1.482v4.002l.821-1.014 2.496-2.988h1.793l-3.17 3.779 3.351 4.752h-1.757l-2.567-3.685zm12.242-.358c0 .836-.144 1.57-.433 2.203-.289.629-.703 1.114-1.242 1.453-.536.336-1.153.504-1.852.504-.691 0-1.309-.168-1.852-.504-.539-.339-.957-.822-1.254-1.447-.292-.625-.441-1.346-.445-2.162v-.48c0-.832.147-1.567.44-2.204.296-.636.713-1.123 1.248-1.459.539-.339 1.156-.509 1.851-.509.696 0 1.311.168 1.846.504.539.332.955.812 1.248 1.441.293.625.441 1.354.445 2.186v.474zm-1.482-.445c0-.945-.18-1.67-.539-2.174-.356-.504-.862-.756-1.518-.756-.64 0-1.142.252-1.506.756-.359.5-.543 1.209-.55 2.127v.492c0 .938.181 1.662.544 2.174.368.512.876.768 1.524.768.656 0 1.16-.25 1.512-.75.355-.5.533-1.231.533-2.192v-.445zm10.226 4.488h-1.482l-3.803-6.053v6.053h-1.482v-8.531h1.482l3.815 6.076v-6.076h1.47v8.531zm7.239-3.808h-3.504v2.625h4.096v1.183h-5.579v-8.531h5.537v1.195h-4.054v2.356h3.504v1.172zm4.22-4.723l2.461 6.539 2.455-6.539h1.916v8.531h-1.476v-2.812l.146-3.762-2.519 6.574h-1.061l-2.513-6.568.146 3.756v2.812h-1.476v-8.531h1.921zm19.088 5.754c-.086.91-.422 1.621-1.008 2.133-.585.507-1.365.761-2.337.761-.68 0-1.28-.16-1.799-.48-.516-.324-.914-.783-1.196-1.377-.281-.594-.427-1.283-.439-2.068v-.797c0-.805.143-1.514.428-2.127.285-.614.693-1.086 1.224-1.418.535-.332 1.153-.498 1.852-.498.941 0 1.699.256 2.273.767.575.512.909 1.235 1.002 2.168h-1.476c-.071-.613-.25-1.054-.539-1.324-.285-.273-.705-.41-1.26-.41-.645 0-1.141.236-1.488.709-.344.469-.52 1.158-.528 2.068v.756c0 .922.164 1.625.492 2.109.333.485.817.727 1.454.727.582 0 1.019-.131 1.312-.393.293-.261.479-.697.557-1.306h1.476zm-3.381-7.26l.856-.908h1.219v.058l-1.635 1.635h-.879l-1.623-1.64v-.053h1.207l.855.908zm5.961 8.537c.266 0 .471.076.616.229a.774.774 0 01.216.562.769.769 0 01-.216.557c-.145.144-.35.217-.616.217-.254 0-.455-.073-.603-.217a.742.742 0 01-.223-.557.77.77 0 01.217-.562c.145-.153.348-.229.609-.229zm-289.084 15.5h-1.418v-6.849l-2.091.714v-1.201l3.328-1.224h.181v8.56zm9.026-3.592c0 1.227-.23 2.153-.692 2.778-.457.621-1.154.931-2.091.931-.922 0-1.618-.302-2.086-.908-.465-.609-.703-1.51-.715-2.701v-1.477c0-1.226.228-2.146.685-2.759.461-.614 1.162-.92 2.104-.92.933 0 1.629.299 2.086.896.46.598.697 1.492.709 2.684v1.476zm-1.424-1.593c0-.801-.11-1.387-.328-1.758-.219-.375-.567-.563-1.043-.563-.465 0-.807.178-1.026.533-.218.352-.334.903-.345 1.653v1.933c0 .797.111 1.391.334 1.782.222.39.572.586 1.049.586.457 0 .794-.18 1.013-.539.219-.364.334-.93.346-1.7v-1.927zm7.613-3.387v1.178h-.175c-.797.011-1.434.23-1.91.656-.477.426-.76 1.029-.85 1.81.457-.48 1.04-.72 1.752-.72.753 0 1.347.265 1.78.797.438.531.657 1.216.657 2.056 0 .867-.256 1.571-.767 2.11-.508.535-1.176.802-2.004.802-.852 0-1.543-.314-2.075-.943-.527-.629-.79-1.453-.79-2.473v-.486c0-1.496.363-2.668 1.09-3.516.73-.847 1.779-1.271 3.146-1.271h.146zm-1.53 4.072a1.548 1.548 0 00-1.43.967v.434c.001.632.134 1.136.4 1.511.265.371.61.557 1.03.557.423 0 .757-.158 1.003-.475.246-.316.369-.732.369-1.248 0-.515-.125-.935-.375-1.26a1.196 1.196 0 00-.996-.486zm4.913 5.233h-1.12l3.358-9.264h1.12l-3.358 9.264zm8.61-.733H50.44v-6.849l-2.092.714v-1.201l3.328-1.224h.181v8.56zm7.501-3.568c-.476.504-1.033.756-1.67.756-.75 0-1.347-.262-1.792-.786-.446-.527-.669-1.218-.669-2.074 0-.562.114-1.072.34-1.529.227-.457.55-.813.967-1.066.418-.254.903-.381 1.453-.381.86 0 1.541.32 2.045.961.504.64.756 1.498.756 2.572v.398c0 1.539-.348 2.713-1.043 3.522-.695.808-1.732 1.219-3.111 1.23h-.17v-1.177h.205c.84-.012 1.484-.213 1.933-.604.45-.395.702-1.002.756-1.822zm-1.37-.358c.284 0 .552-.082.802-.246.25-.164.443-.39.58-.679v-.557c0-.629-.129-1.135-.387-1.518-.257-.382-.591-.574-1.002-.574-.41 0-.738.17-.984.51-.242.336-.363.762-.363 1.277 0 .535.123.967.369 1.295.246.328.574.492.984.492zm8.69.358c-.476.504-1.032.756-1.67.756-.75 0-1.347-.262-1.792-.786-.445-.527-.668-1.218-.668-2.074 0-.562.113-1.072.34-1.529.226-.457.548-.813.966-1.066.418-.254.903-.381 1.454-.381.859 0 1.54.32 2.044.961.504.64.756 1.498.756 2.572v.398c0 1.539-.347 2.713-1.043 3.522-.695.808-1.732 1.219-3.11 1.23h-.17v-1.177h.204c.84-.012 1.485-.213 1.934-.604.449-.395.701-1.002.756-1.822zm-1.37-.358c.285 0 .552-.082.802-.246.25-.164.444-.39.58-.679v-.557c0-.629-.129-1.135-.386-1.518-.258-.382-.592-.574-1.002-.574-.41 0-.739.17-.985.51-.242.336-.363.762-.363 1.277 0 .535.123.967.37 1.295.245.328.573.492.984.492zm8.691.358c-.477.504-1.033.756-1.67.756-.75 0-1.348-.262-1.793-.786-.445-.527-.668-1.218-.668-2.074 0-.562.113-1.072.34-1.529.227-.457.549-.813.967-1.066.418-.254.902-.381 1.453-.381.86 0 1.54.32 2.045.961.504.64.756 1.498.756 2.572v.398c0 1.539-.348 2.713-1.043 3.522-.696.808-1.733 1.219-3.112 1.23h-.17v-1.177h.206c.84-.012 1.484-.213 1.933-.604.45-.395.701-1.002.756-1.822zm-1.371-.358c.285 0 .553-.082.803-.246.25-.164.443-.39.58-.679v-.557c0-.629-.13-1.135-.387-1.518-.258-.382-.592-.574-1.002-.574-.41 0-.738.17-.984.51-.242.336-.364.762-.364 1.277 0 .535.123.967.37 1.295.246.328.574.492.984.492zm12.83 1.729c0-.375-.133-.664-.398-.867-.262-.203-.737-.409-1.424-.616-.688-.207-1.235-.437-1.64-.691-.778-.488-1.167-1.125-1.167-1.91 0-.688.28-1.254.838-1.699.563-.446 1.291-.668 2.185-.668.594 0 1.124.109 1.588.328.465.219.83.531 1.096.937.266.403.398.85.398 1.342H85.46c0-.445-.14-.793-.422-1.043-.277-.254-.676-.381-1.195-.381-.485 0-.861.104-1.131.311-.266.207-.398.496-.398.867 0 .313.144.574.433.785.29.207.766.41 1.43.61.664.195 1.197.419 1.6.673.402.25.697.539.884.868.188.324.281.705.281 1.142 0 .711-.273 1.277-.82 1.699-.543.418-1.281.627-2.215.627a4.212 4.212 0 01-1.705-.34c-.515-.23-.918-.546-1.207-.949a2.369 2.369 0 01-.428-1.406h1.483c0 .484.16.859.48 1.125.32.266.78.398 1.377.398.516 0 .903-.103 1.16-.31.262-.211.393-.488.393-.832zm3.283 2.197v-8.531h2.924c.965 0 1.7.193 2.203.58.504.387.756.963.756 1.728 0 .391-.106.743-.316 1.055-.211.313-.52.555-.926.727.46.125.816.361 1.066.709.254.343.381.758.381 1.242 0 .801-.258 1.416-.773 1.846-.512.429-1.246.644-2.204.644h-3.11zm1.483-3.849v2.666h1.646c.465 0 .828-.116 1.09-.346.262-.231.392-.551.392-.961 0-.887-.453-1.34-1.359-1.359h-1.77zm0-1.09h1.453c.46 0 .82-.104 1.078-.311.262-.211.392-.508.392-.891 0-.421-.12-.726-.363-.914-.238-.187-.611-.281-1.119-.281h-1.441v2.397zm7.338 3.439c.265 0 .47.076.615.229a.772.772 0 01.216.562.767.767 0 01-.216.557c-.145.144-.35.217-.615.217-.254 0-.456-.073-.604-.217a.744.744 0 01-.223-.557c0-.226.073-.414.217-.562.145-.153.348-.229.61-.229zm3.166 3.422l-.768-.457c.227-.356.381-.666.463-.932.086-.261.131-.529.135-.802v-1.108h1.283l-.006 1.026a2.817 2.817 0 01-.316 1.242 3.07 3.07 0 01-.791 1.031zm13.369-5.965c0 .836-.145 1.57-.434 2.203-.289.629-.703 1.114-1.242 1.453-.535.336-1.152.504-1.852.504-.691 0-1.308-.168-1.851-.504-.539-.339-.957-.822-1.254-1.447-.293-.625-.442-1.346-.445-2.162v-.48c0-.832.146-1.567.439-2.204.297-.636.713-1.123 1.248-1.459.539-.339 1.156-.509 1.852-.509.695 0 1.31.168 1.845.504.539.332.955.812 1.248 1.441.293.625.442 1.354.446 2.186v.474zm-1.483-.445c0-.945-.179-1.67-.539-2.174-.355-.504-.861-.756-1.517-.756-.641 0-1.143.252-1.506.756-.36.5-.543 1.209-.551 2.127v.492c0 .938.182 1.662.545 2.174.367.512.875.768 1.523.768.657 0 1.16-.25 1.512-.75.356-.5.533-1.231.533-2.192v-.445zm11.406 2.291c0-.375-.132-.664-.398-.867-.262-.203-.736-.409-1.424-.616-.687-.207-1.234-.437-1.64-.691-.778-.488-1.166-1.125-1.166-1.91 0-.688.279-1.254.837-1.699.563-.446 1.291-.668 2.186-.668.594 0 1.123.109 1.588.328.465.219.83.531 1.096.937.265.403.398.85.398 1.342h-1.477c0-.445-.14-.793-.421-1.043-.278-.254-.676-.381-1.196-.381-.484 0-.861.104-1.131.311-.265.207-.398.496-.398.867 0 .313.145.574.434.785.289.207.765.41 1.429.61.664.195 1.198.419 1.6.673.402.25.697.539.885.868.187.324.281.705.281 1.142 0 .711-.274 1.277-.82 1.699-.543.418-1.282.627-2.215.627a4.21 4.21 0 01-1.705-.34c-.516-.23-.918-.546-1.207-.949-.286-.402-.428-.871-.428-1.406h1.482c0 .484.16.859.481 1.125.32.266.779.398 1.377.398.515 0 .902-.103 1.16-.31.262-.211.392-.488.392-.832zm6.29.34l2.168-6.674h1.628l-3.07 8.531h-1.435l-3.059-8.531h1.623l2.145 6.674zm11.99-2.186c0 .836-.145 1.57-.434 2.203-.289.629-.703 1.114-1.242 1.453-.535.336-1.152.504-1.852.504-.691 0-1.308-.168-1.851-.504-.539-.339-.957-.822-1.254-1.447-.293-.625-.441-1.346-.445-2.162v-.48c0-.832.146-1.567.439-2.204.297-.636.713-1.123 1.248-1.459.539-.339 1.156-.509 1.852-.509.695 0 1.31.168 1.845.504.539.332.955.812 1.248 1.441.293.625.442 1.354.446 2.186v.474zm-1.483-.445c0-.945-.179-1.67-.539-2.174-.355-.504-.861-.756-1.517-.756-.641 0-1.143.252-1.506.756-.36.5-.543 1.209-.551 2.127v.492c0 .938.182 1.662.545 2.174.367.512.875.768 1.523.768.657 0 1.161-.25 1.512-.75.356-.5.533-1.231.533-2.192v-.445zm3.459 4.488v-8.531h2.924c.965 0 1.699.193 2.203.58.504.387.756.963.756 1.728 0 .391-.105.743-.316 1.055-.211.313-.52.555-.926.727.461.125.816.361 1.066.709.254.343.381.758.381 1.242 0 .801-.258 1.416-.773 1.846-.512.429-1.246.644-2.203.644h-3.112zm1.483-3.849v2.666h1.646c.465 0 .828-.116 1.09-.346.262-.231.393-.551.393-.961 0-.887-.453-1.34-1.36-1.359h-1.769zm0-1.09h1.453c.461 0 .82-.104 1.078-.311.262-.211.393-.508.393-.891 0-.421-.122-.726-.364-.914-.238-.187-.611-.281-1.119-.281h-1.441v2.397zm13.396.896c0 .836-.144 1.57-.433 2.203-.289.629-.703 1.114-1.243 1.453-.535.336-1.152.504-1.851.504-.691 0-1.309-.168-1.852-.504-.539-.339-.957-.822-1.254-1.447-.293-.625-.441-1.346-.445-2.162v-.48c0-.832.147-1.567.44-2.204.296-.636.712-1.123 1.248-1.459.539-.339 1.156-.509 1.851-.509.695 0 1.311.168 1.846.504.539.332.955.812 1.248 1.441.293.625.441 1.354.445 2.186v.474zm-1.482-.445c0-.945-.18-1.67-.539-2.174-.356-.504-.862-.756-1.518-.756-.64 0-1.142.252-1.506.756-.359.5-.543 1.209-.55 2.127v.492c0 .938.181 1.662.544 2.174.368.512.875.768 1.524.768.656 0 1.16-.25 1.512-.75.355-.5.533-1.231.533-2.192v-.445zm3.459 4.488v-8.531h2.519c.754 0 1.422.168 2.004.504a3.436 3.436 0 011.36 1.429c.32.618.48 1.325.48 2.122v.427c0 .809-.162 1.52-.486 2.133a3.381 3.381 0 01-1.377 1.418c-.594.332-1.276.498-2.045.498h-2.455zm1.482-7.336v6.153h.967c.777 0 1.373-.243 1.787-.727.418-.488.631-1.188.639-2.098v-.474c0-.926-.201-1.633-.604-2.121-.402-.489-.986-.733-1.752-.733h-1.037zm13.625 7.336h-1.482l-3.803-6.053v6.053h-1.482v-8.531h1.482l3.815 6.076v-6.076h1.47v8.531zm7.239-3.808h-3.504v2.625h4.095v1.183h-5.578v-8.531h5.537v1.195h-4.054v2.356h3.504v1.172zm-1.764-7.049h1.623l-1.623 1.775h-1.143l1.143-1.775zm5.984 2.326l2.461 6.539 2.455-6.539h1.916v8.531h-1.476v-2.812l.146-3.762-2.519 6.574h-1.061l-2.514-6.568.147 3.756v2.812h-1.477v-8.531h1.922zm14.061 5.361v3.17h-1.483v-8.531h3.264c.953 0 1.709.248 2.268.744.562.496.843 1.152.843 1.969 0 .836-.275 1.486-.826 1.951-.547.465-1.314.697-2.303.697h-1.763zm0-1.189h1.781c.527 0 .93-.123 1.207-.369.277-.25.416-.61.416-1.079 0-.46-.141-.828-.422-1.101-.281-.277-.668-.42-1.16-.428h-1.822v2.977zm9.828 1.072h-1.652v3.287h-1.483v-8.531h3c.985 0 1.744.221 2.279.662.536.441.803 1.08.803 1.916 0 .57-.139 1.049-.416 1.436-.273.382-.656.677-1.148.884l1.916 3.557v.076h-1.588l-1.711-3.287zm-1.652-1.189h1.523c.5 0 .891-.125 1.172-.375.281-.254.422-.6.422-1.038 0-.457-.131-.81-.393-1.06-.258-.25-.644-.379-1.16-.387h-1.564v2.86zm1.183-5.438l.856-.908h1.218v.058l-1.634 1.635h-.879l-1.623-1.64v-.053h1.207l.855.908zm6.887 9.914h-1.477v-8.531h1.477v8.531zm-.322-10.857h1.623l-1.623 1.775h-1.143l1.143-1.775zm7.103 8.66c0-.375-.133-.664-.398-.867-.262-.203-.737-.409-1.424-.616-.688-.207-1.235-.437-1.641-.691-.777-.488-1.166-1.125-1.166-1.91 0-.688.28-1.254.838-1.699.563-.446 1.291-.668 2.186-.668.593 0 1.123.109 1.588.328a2.6 2.6 0 011.095.937c.266.403.399.85.399 1.342h-1.477c0-.445-.141-.793-.422-1.043-.277-.254-.676-.381-1.195-.381-.484 0-.861.104-1.131.311-.266.207-.398.496-.398.867 0 .313.144.574.433.785.289.207.766.41 1.43.61.664.195 1.197.419 1.6.673.402.25.697.539.884.868.188.324.282.705.282 1.142 0 .711-.274 1.277-.821 1.699-.543.418-1.281.627-2.215.627a4.214 4.214 0 01-1.705-.34c-.515-.23-.918-.546-1.207-.949-.285-.402-.427-.871-.427-1.406h1.482c0 .484.16.859.48 1.125.321.266.78.398 1.377.398.516 0 .903-.103 1.161-.31.261-.211.392-.488.392-.832zm9.447-5.139h-2.66v7.336h-1.47v-7.336h-2.637v-1.195h6.767v1.195zm7.866-1.195v5.701c0 .906-.291 1.625-.873 2.156-.579.528-1.35.791-2.315.791-.976 0-1.752-.259-2.326-.779-.574-.523-.861-1.248-.861-2.174v-5.695h1.476v5.707c0 .57.145 1.006.434 1.307.289.3.715.451 1.277.451 1.141 0 1.711-.602 1.711-1.805v-5.66h1.477zm3.57 5.361v3.17h-1.482v-8.531h3.263c.953 0 1.709.248 2.268.744.562.496.843 1.152.843 1.969 0 .836-.275 1.486-.826 1.951-.547.465-1.314.697-2.302.697h-1.764zm0-1.189h1.781c.528 0 .93-.123 1.207-.369.278-.25.416-.61.416-1.079 0-.46-.14-.828-.422-1.101-.281-.277-.668-.42-1.16-.428h-1.822v2.977zm12.934-4.172v5.701c0 .906-.292 1.625-.874 2.156-.578.528-1.349.791-2.314.791-.977 0-1.752-.259-2.326-.779-.574-.523-.861-1.248-.861-2.174v-5.695h1.476v5.707c0 .57.145 1.006.434 1.307.289.3.715.451 1.277.451 1.141 0 1.711-.602 1.711-1.805v-5.66h1.477zm8.025 4.846l-.967 1.025v2.66h-1.482v-8.531h1.482v4.002l.82-1.014 2.497-2.988h1.792l-3.169 3.779 3.351 4.752h-1.758l-2.566-3.685zM22.588 512.901H21.11v-8.531h1.477v8.531zm9.09 0h-1.483l-3.802-6.053v6.053H24.91v-8.531h1.483l3.814 6.076v-6.076h1.47v8.531zm7.168-3.615h-3.434v3.615H33.93v-8.531h5.42v1.195h-3.938v2.537h3.434v1.184zm8.99-.428c0 .836-.145 1.57-.434 2.203-.289.629-.703 1.114-1.242 1.453-.535.336-1.152.504-1.851.504-.692 0-1.309-.168-1.852-.504-.539-.339-.957-.822-1.254-1.447-.293-.625-.441-1.346-.445-2.162v-.48c0-.832.146-1.567.44-2.204.296-.636.712-1.123 1.247-1.459.54-.339 1.157-.509 1.852-.509.695 0 1.31.168 1.846.504.539.332.955.812 1.248 1.441.293.625.441 1.354.445 2.186v.474zm-1.483-.445c0-.945-.18-1.67-.538-2.174-.356-.504-.862-.756-1.518-.756-.64 0-1.143.252-1.506.756-.36.5-.543 1.209-.55 2.127v.492c0 .938.18 1.662.544 2.174.367.512.875.768 1.524.768.656 0 1.16-.25 1.511-.75.356-.5.533-1.231.533-2.192v-.445zm6.594 1.201h-1.652v3.287h-1.483v-8.531h3c.985 0 1.745.221 2.28.662.535.441.803 1.08.803 1.916 0 .57-.14 1.049-.417 1.436-.273.382-.656.677-1.148.884l1.916 3.557v.076h-1.588l-1.71-3.287zm-1.652-1.189h1.523c.5 0 .891-.125 1.172-.375.282-.254.422-.6.422-1.038 0-.457-.13-.81-.392-1.06-.258-.25-.645-.379-1.16-.387h-1.565v2.86zm8.428-4.055l2.46 6.539 2.456-6.539h1.916v8.531h-1.477v-2.812l.147-3.762-2.52 6.574h-1.06l-2.514-6.568.146 3.756v2.812h-1.476v-8.531h1.922zm13.97 6.545H70.39l-.692 1.986h-1.54l3.222-8.531h1.33l3.228 8.531h-1.546l-.698-1.986zm-2.888-1.196h2.472l-1.236-3.539-1.236 3.539zm12.986.405c-.086.91-.422 1.621-1.008 2.133-.586.507-1.365.761-2.338.761-.68 0-1.279-.16-1.798-.48-.516-.324-.915-.783-1.196-1.377-.281-.594-.428-1.283-.44-2.068v-.797c0-.805.143-1.514.428-2.127.286-.614.694-1.086 1.225-1.418.535-.332 1.152-.498 1.852-.498.941 0 1.699.256 2.273.767.574.512.908 1.235 1.002 2.168h-1.477c-.07-.613-.25-1.054-.539-1.324-.285-.273-.705-.41-1.26-.41-.644 0-1.14.236-1.488.709-.343.469-.52 1.158-.527 2.068v.756c0 .922.164 1.625.492 2.109.332.485.817.727 1.453.727.582 0 1.02-.131 1.313-.393.293-.261.478-.697.556-1.306h1.477zm3.395 2.777h-1.477v-8.531h1.477v8.531zm-.323-10.857h1.623l-1.623 1.775h-1.142l1.142-1.775zm4.567 2.326l2.46 6.539 2.456-6.539h1.916v8.531h-1.477v-2.812l.147-3.762-2.52 6.574h-1.06l-2.514-6.568.146 3.756v2.812h-1.476v-8.531h1.922zm9.84 7.031c.265 0 .47.076.615.229a.775.775 0 01.217.562.77.77 0 01-.217.557c-.145.144-.35.217-.615.217-.254 0-.456-.073-.604-.217a.746.746 0 01-.223-.557c0-.226.073-.414.217-.562.145-.153.348-.229.61-.229z" fill="#fff"/></svg>